<svg width="88" height="29" viewBox="0 0 88 29" fill="none" xmlns="http://www.w3.org/2000/svg">
<path d="M28.0736 6.0167C28.0736 5.85188 28.2061 5.71826 28.3696 5.71826H39.6513C39.8148 5.71826 39.9473 5.85188 39.9473 6.0167V8.46148C39.9473 8.6263 39.8148 8.75992 39.6513 8.75992H35.7936C35.6301 8.75992 35.4975 8.89353 35.4975 9.05835V21.4102C35.4975 21.5751 35.365 21.7087 35.2015 21.7087H32.6686C32.5051 21.7087 32.3725 21.5751 32.3725 21.4102V9.05835C32.3725 8.89353 32.24 8.75992 32.0765 8.75992H28.3696C28.2061 8.75992 28.0736 8.6263 28.0736 8.46148V6.0167Z" fill="url(#paint0_linear_1603_83)"/>
<path d="M6.10352e-05 6.0167C6.10352e-05 5.85188 0.132601 5.71826 0.296098 5.71826H9.61772C9.78122 5.71826 9.91376 5.85188 9.91376 6.0167V8.46148C9.91376 8.6263 9.78122 8.75992 9.61772 8.75992H3.42107C3.25757 8.75992 3.12503 8.89353 3.12503 9.05835V12.0897C3.12503 12.2546 3.25757 12.3882 3.42107 12.3882H8.71255C8.87605 12.3882 9.00859 12.5218 9.00859 12.6866V15.1314C9.00859 15.2962 8.87605 15.4298 8.71256 15.4298H3.42107C3.25757 15.4298 3.12503 15.5634 3.12503 15.7283V21.4102C3.12503 21.5751 2.99249 21.7087 2.82899 21.7087H0.296098C0.132602 21.7087 6.10352e-05 21.5751 6.10352e-05 21.4102V6.0167Z" fill="url(#paint1_linear_1603_83)"/>
<path fill-rule="evenodd" clip-rule="evenodd" d="M49.3083 22.0563C53.7006 22.0563 57.2612 18.3989 57.2612 13.8873C57.2612 9.37565 53.7006 5.71826 49.3083 5.71826C44.916 5.71826 41.3553 9.37565 41.3553 13.8873C41.3553 18.3989 44.916 22.0563 49.3083 22.0563ZM49.3083 19.1971C52.1633 19.1971 54.4777 16.8198 54.4777 13.8873C54.4777 10.9547 52.1633 8.57742 49.3083 8.57742C46.4533 8.57742 44.1389 10.9547 44.1389 13.8873C44.1389 16.8198 46.4533 19.1971 49.3083 19.1971Z" fill="url(#paint2_linear_1603_83)"/>
<path d="M57.3385 20.1368C57.3385 19.6878 57.4965 19.3112 57.8126 19.007C58.1431 18.7029 58.5023 18.5508 58.8902 18.5508C59.2494 18.5508 59.587 18.7029 59.9031 19.007C60.2336 19.3112 60.3988 19.6878 60.3988 20.1368C60.3988 20.6148 60.2336 20.9986 59.9031 21.2883C59.587 21.5635 59.2494 21.7011 58.8902 21.7011C58.5023 21.7011 58.1431 21.5635 57.8126 21.2883C57.4965 20.9986 57.3385 20.6148 57.3385 20.1368Z" fill="url(#paint3_linear_1603_83)"/>
<path d="M67.3783 5.71826C68.3696 5.71826 69.2532 5.84862 70.0291 6.10933C70.8049 6.35556 71.4515 6.71766 71.9687 7.19564C72.5003 7.65913 72.9026 8.22401 73.1756 8.89027C73.4486 9.54206 73.5851 10.2807 73.5851 11.1063C73.5851 11.7581 73.4845 12.4099 73.2834 13.0617C73.0966 13.7135 72.7805 14.3073 72.3351 14.8432C71.9041 15.3791 71.3294 15.8137 70.611 16.1468C69.8926 16.4654 69.0018 16.6248 67.9386 16.6248H65.9933C65.8298 16.6248 65.6972 16.7584 65.6972 16.9232V21.4102C65.6972 21.5751 65.5647 21.7087 65.4012 21.7087H62.8683C62.7048 21.7087 62.5723 21.5751 62.5723 21.4102V6.0167C62.5723 5.85188 62.7048 5.71826 62.8683 5.71826H67.3783ZM67.917 13.5831C68.3912 13.5831 68.7863 13.5034 69.1024 13.3441C69.4185 13.1848 69.6627 12.982 69.8351 12.7358C70.0219 12.4896 70.1512 12.2361 70.2231 11.9754C70.3093 11.7002 70.3524 11.4467 70.3524 11.215C70.3524 11.0412 70.3236 10.8239 70.2662 10.5632C70.2231 10.288 70.1225 10.0128 69.9644 9.73759C69.8064 9.46239 69.5621 9.23065 69.2317 9.04236C68.9156 8.85406 68.4846 8.75992 67.9386 8.75992H65.9933C65.8298 8.75992 65.6972 8.89353 65.6972 9.05835V13.2847C65.6972 13.4495 65.8298 13.5831 65.9933 13.5831H67.917ZM70.6817 15.5423C70.785 15.5399 70.8821 15.592 70.9378 15.6797L74.4783 21.2492C74.6046 21.4478 74.4631 21.7087 74.2291 21.7087H71.287C71.1878 21.7087 71.0952 21.6586 71.0404 21.5754L67.4168 16.0763C67.2878 15.8806 67.4235 15.6183 67.6566 15.6128L70.6817 15.5423Z" fill="url(#paint4_linear_1603_83)"/>
<path d="M78.2804 15.7992C78.2804 16.3061 78.4312 16.7913 78.7329 17.2548C79.0347 17.7183 79.4298 18.0949 79.9183 18.3846C80.4211 18.6743 80.9671 18.8191 81.5562 18.8191C82.2027 18.8191 82.7774 18.6743 83.2803 18.3846C83.7832 18.0949 84.1783 17.7183 84.4656 17.2548C84.7674 16.7913 84.9182 16.3061 84.9182 15.7992V6.0167C84.9182 5.85188 85.0508 5.71826 85.2143 5.71826H87.7041C87.8675 5.71826 88.0001 5.85188 88.0001 6.0167V15.8643C88.0001 17.0376 87.7127 18.0804 87.138 18.9929C86.5633 19.8909 85.7875 20.6006 84.8105 21.1221C83.8335 21.629 82.7487 21.8825 81.5562 21.8825C80.378 21.8825 79.3005 21.629 78.3235 21.1221C77.3608 20.6006 76.5922 19.8909 76.0175 18.9929C75.4427 18.0804 75.1554 17.0376 75.1554 15.8643V6.0167C75.1554 5.85188 75.2879 5.71826 75.4514 5.71826H77.9843C78.1478 5.71826 78.2804 5.85188 78.2804 6.0167V15.7992Z" fill="url(#paint5_linear_1603_83)"/>
<path fill-rule="evenodd" clip-rule="evenodd" d="M19.4847 22.0563C23.877 22.0563 27.4377 18.3989 27.4377 13.8873C27.4377 9.37565 23.877 5.71826 19.4847 5.71826C15.0925 5.71826 11.5318 9.37565 11.5318 13.8873C11.5318 18.3989 15.0925 22.0563 19.4847 22.0563ZM19.4847 19.1971C22.3397 19.1971 24.6542 16.8198 24.6542 13.8873C24.6542 10.9547 22.3397 8.57742 19.4847 8.57742C16.6298 8.57742 14.3153 10.9547 14.3153 13.8873C14.3153 16.8198 16.6298 19.1971 19.4847 19.1971Z" fill="url(#paint6_linear_1603_83)"/>
<path fill-rule="evenodd" clip-rule="evenodd" d="M48.7118 11.2588C48.7118 11.1434 48.604 11.0602 48.4997 11.1034C47.58 11.484 46.9224 12.4954 46.9224 13.6832C46.9224 14.8711 47.58 15.8825 48.4997 16.2631C48.604 16.3062 48.7118 16.2231 48.7118 16.1076C48.7118 16.0329 48.665 15.9673 48.5976 15.9393C47.7945 15.6052 47.2207 14.7212 47.2207 13.6832C47.2207 12.6452 47.7945 11.7613 48.5976 11.4272C48.665 11.3992 48.7118 11.3335 48.7118 11.2588ZM49.9048 16.1076C49.9048 16.0329 49.9516 15.9673 50.0191 15.9393C50.8221 15.6052 51.396 14.7212 51.396 13.6832C51.396 12.6452 50.8221 11.7613 50.0191 11.4272C49.9516 11.3992 49.9048 11.3335 49.9048 11.2588C49.9048 11.1434 50.0127 11.0602 50.1169 11.1034C51.0366 11.484 51.6942 12.4954 51.6942 13.6832C51.6942 14.8711 51.0366 15.8825 50.1169 16.2631C50.0127 16.3062 49.9048 16.2231 49.9048 16.1076Z" fill="black"/>
<path fill-rule="evenodd" clip-rule="evenodd" d="M61.4419 0.408451C61.3291 0.408451 61.2377 0.317016 61.2377 0.204225C61.2377 0.0914348 61.3291 0 61.4419 0H62.8283C64.3656 0 65.6118 1.28009 65.6118 2.85915V4.29413C65.6118 4.40394 65.5228 4.49296 65.413 4.49296C65.3032 4.49296 65.2142 4.40394 65.2142 4.29413V2.85915C65.2142 1.50567 64.146 0.408451 62.8283 0.408451H61.4419ZM61.2377 27.9789C61.2377 27.8661 61.3291 27.7746 61.4419 27.7746H62.8283C64.146 27.7746 65.2142 26.6774 65.2142 25.3239V23.889C65.2142 23.7791 65.3032 23.6901 65.413 23.6901C65.5228 23.6901 65.6118 23.7791 65.6118 23.889V25.3239C65.6118 26.903 64.3656 28.1831 62.8283 28.1831H61.4419C61.3291 28.1831 61.2377 28.0917 61.2377 27.9789ZM33.2036 23.6901C33.3134 23.6901 33.4024 23.7791 33.4024 23.889V25.3239C33.4024 26.6774 34.4706 27.7746 35.7883 27.7746H37.1747C37.2874 27.7746 37.3789 27.8661 37.3789 27.9789C37.3789 28.0917 37.2874 28.1831 37.1747 28.1831H35.7883C34.251 28.1831 33.0048 26.903 33.0048 25.3239V23.889C33.0048 23.7791 33.0938 23.6901 33.2036 23.6901ZM37.3789 0.204225C37.3789 0.317016 37.2874 0.408451 37.1747 0.408451H35.7883C34.4706 0.408451 33.4024 1.50567 33.4024 2.85915V4.29413C33.4024 4.40394 33.3134 4.49296 33.2036 4.49296C33.0938 4.49296 33.0048 4.40394 33.0048 4.29413V2.85915C33.0048 1.28009 34.251 0 35.7883 0H37.1747C37.2874 0 37.3789 0.0914348 37.3789 0.204225Z" fill="black"/>
<path fill-rule="evenodd" clip-rule="evenodd" d="M44.1389 3.14529H41.753C41.6871 3.14529 41.6337 3.20015 41.6337 3.26783V4.90163C41.6337 4.9693 41.6871 5.02416 41.753 5.02416H44.1389C44.2048 5.02416 44.2582 4.9693 44.2582 4.90163V3.26783C44.2582 3.20015 44.2048 3.14529 44.1389 3.14529ZM41.753 2.85938C41.5334 2.85938 41.3553 3.04224 41.3553 3.26783V4.90163C41.3553 5.12721 41.5334 5.31008 41.753 5.31008H44.1389C44.3585 5.31008 44.5365 5.12721 44.5365 4.90163V3.26783C44.5365 3.04224 44.3585 2.85938 44.1389 2.85938H41.753Z" fill="black"/>
<path fill-rule="evenodd" clip-rule="evenodd" d="M44.1389 22.7508H41.753C41.6871 22.7508 41.6337 22.8056 41.6337 22.8733V24.5071C41.6337 24.5748 41.6871 24.6296 41.753 24.6296H44.1389C44.2048 24.6296 44.2582 24.5748 44.2582 24.5071V22.8733C44.2582 22.8056 44.2048 22.7508 44.1389 22.7508ZM41.753 22.4648C41.5334 22.4648 41.3553 22.6477 41.3553 22.8733V24.5071C41.3553 24.7327 41.5334 24.9155 41.753 24.9155H44.1389C44.3585 24.9155 44.5365 24.7327 44.5365 24.5071V22.8733C44.5365 22.6477 44.3585 22.4648 44.1389 22.4648H41.753Z" fill="black"/>
<path fill-rule="evenodd" clip-rule="evenodd" d="M56.8636 3.14529H54.4777C54.4118 3.14529 54.3584 3.20015 54.3584 3.26783V4.90163C54.3584 4.9693 54.4118 5.02416 54.4777 5.02416H56.8636C56.9295 5.02416 56.9829 4.9693 56.9829 4.90163V3.26783C56.9829 3.20015 56.9295 3.14529 56.8636 3.14529ZM54.4777 2.85938C54.2581 2.85938 54.0801 3.04224 54.0801 3.26783V4.90163C54.0801 5.12721 54.2581 5.31008 54.4777 5.31008H56.8636C57.0832 5.31008 57.2613 5.12721 57.2613 4.90163V3.26783C57.2613 3.04224 57.0832 2.85938 56.8636 2.85938H54.4777Z" fill="black"/>
<path fill-rule="evenodd" clip-rule="evenodd" d="M56.8636 22.7508H54.4777C54.4118 22.7508 54.3584 22.8056 54.3584 22.8733V24.5071C54.3584 24.5748 54.4118 24.6296 54.4777 24.6296H56.8636C56.9295 24.6296 56.9829 24.5748 56.9829 24.5071V22.8733C56.9829 22.8056 56.9295 22.7508 56.8636 22.7508ZM54.4777 22.4648C54.2581 22.4648 54.0801 22.6477 54.0801 22.8733V24.5071C54.0801 24.7327 54.2581 24.9155 54.4777 24.9155H56.8636C57.0832 24.9155 57.2613 24.7327 57.2613 24.5071V22.8733C57.2613 22.6477 57.0832 22.4648 56.8636 22.4648H54.4777Z" fill="black"/>
<path fill-rule="evenodd" clip-rule="evenodd" d="M61.2378 12.948H58.8519C58.786 12.948 58.7326 13.0029 58.7326 13.0706V14.7044C58.7326 14.772 58.786 14.8269 58.8519 14.8269H61.2378C61.3036 14.8269 61.357 14.772 61.357 14.7044V13.0706C61.357 13.0029 61.3036 12.948 61.2378 12.948ZM58.8519 12.6621C58.6323 12.6621 58.4542 12.845 58.4542 13.0706V14.7044C58.4542 14.9299 58.6323 15.1128 58.8519 15.1128H61.2378C61.4574 15.1128 61.6354 14.9299 61.6354 14.7044V13.0706C61.6354 12.845 61.4574 12.6621 61.2378 12.6621H58.8519Z" fill="black"/>
<path fill-rule="evenodd" clip-rule="evenodd" d="M39.7648 12.948H37.3789C37.313 12.948 37.2596 13.0029 37.2596 13.0706V14.7044C37.2596 14.772 37.313 14.8269 37.3789 14.8269H39.7648C39.8307 14.8269 39.8841 14.772 39.8841 14.7044V13.0706C39.8841 13.0029 39.8307 12.948 39.7648 12.948ZM37.3789 12.6621C37.1593 12.6621 36.9813 12.845 36.9813 13.0706V14.7044C36.9813 14.9299 37.1593 15.1128 37.3789 15.1128H39.7648C39.9844 15.1128 40.1624 14.9299 40.1624 14.7044V13.0706C40.1624 12.845 39.9844 12.6621 39.7648 12.6621H37.3789Z" fill="black"/>
<path fill-rule="evenodd" clip-rule="evenodd" d="M49.3083 26.3394C49.3083 26.2296 49.3973 26.1406 49.5071 26.1406C49.6169 26.1406 49.706 26.2296 49.706 26.3394V28.801C49.706 28.9108 49.6169 28.9998 49.5071 28.9998C49.3973 28.9998 49.3083 28.9108 49.3083 28.801V26.3394ZM43.7412 26.3395C43.7412 26.2296 43.6522 26.1406 43.5424 26.1406C43.4326 26.1406 43.3436 26.2296 43.3436 26.3395V28.801C43.3436 28.9108 43.4326 28.9998 43.5424 28.9998C43.6522 28.9998 43.7412 28.9108 43.7412 28.801V26.3395ZM38.5718 27.1564C38.5718 27.0465 38.6609 26.9575 38.7707 26.9575C38.8805 26.9575 38.9695 27.0465 38.9695 27.1564V28.801C38.9695 28.9108 38.8805 28.9998 38.7707 28.9998C38.6609 28.9998 38.5718 28.9108 38.5718 28.801V27.1564ZM39.7648 27.1564C39.7648 27.0465 39.8538 26.9575 39.9636 26.9575C40.0734 26.9575 40.1624 27.0465 40.1624 27.1564V28.801C40.1624 28.9108 40.0734 28.9998 39.9636 28.9998C39.8538 28.9998 39.7648 28.9108 39.7648 28.801V27.1564ZM41.3554 27.1564C41.3554 27.0465 41.2663 26.9575 41.1565 26.9575C41.0467 26.9575 40.9577 27.0465 40.9577 27.1564V28.801C40.9577 28.9108 41.0467 28.9998 41.1565 28.9998C41.2663 28.9998 41.3554 28.9108 41.3554 28.801V27.1564ZM42.1507 27.1564C42.1507 27.0465 42.2397 26.9575 42.3495 26.9575C42.4593 26.9575 42.5483 27.0465 42.5483 27.1564V28.801C42.5483 28.9108 42.4593 28.9998 42.3495 28.9998C42.2397 28.9998 42.1507 28.9108 42.1507 28.801V27.1564ZM44.5365 27.1564C44.5365 27.0465 44.6256 26.9575 44.7354 26.9575C44.8452 26.9575 44.9342 27.0465 44.9342 27.1564V28.801C44.9342 28.9108 44.8452 28.9998 44.7354 28.9998C44.6256 28.9998 44.5365 28.9108 44.5365 28.801V27.1564ZM46.1271 27.1564C46.1271 27.0465 46.0381 26.9575 45.9283 26.9575C45.8185 26.9575 45.7295 27.0465 45.7295 27.1564V28.801C45.7295 28.9108 45.8185 28.9998 45.9283 28.9998C46.0381 28.9998 46.1271 28.9108 46.1271 28.801V27.1564ZM46.9224 27.1564C46.9224 27.0465 47.0114 26.9575 47.1213 26.9575C47.2311 26.9575 47.3201 27.0465 47.3201 27.1564V28.801C47.3201 28.9108 47.2311 28.9998 47.1213 28.9998C47.0114 28.9998 46.9224 28.9108 46.9224 28.801V27.1564ZM48.513 27.1564C48.513 27.0465 48.424 26.9575 48.3142 26.9575C48.2044 26.9575 48.1154 27.0465 48.1154 27.1564V28.801C48.1154 28.9108 48.2044 28.9998 48.3142 28.9998C48.424 28.9998 48.513 28.9108 48.513 28.801V27.1564ZM50.8989 27.1564C50.8989 27.0465 50.8099 26.9575 50.7001 26.9575C50.5903 26.9575 50.5012 27.0465 50.5012 27.1564V28.801C50.5012 28.9108 50.5903 28.9998 50.7001 28.9998C50.8099 28.9998 50.8989 28.9108 50.8989 28.801V27.1564ZM51.6942 27.1563C51.6942 27.0465 51.7832 26.9575 51.893 26.9575C52.0028 26.9575 52.0918 27.0465 52.0918 27.1563V28.801C52.0918 28.9108 52.0028 28.9998 51.893 28.9998C51.7832 28.9998 51.6942 28.9108 51.6942 28.801V27.1563ZM53.2848 27.1564C53.2848 27.0465 53.1958 26.9575 53.086 26.9575C52.9761 26.9575 52.8871 27.0465 52.8871 27.1564V28.801C52.8871 28.9108 52.9761 28.9998 53.086 28.9998C53.1958 28.9998 53.2848 28.9108 53.2848 28.801V27.1564ZM54.0801 27.1564C54.0801 27.0465 54.1691 26.9575 54.2789 26.9575C54.3887 26.9575 54.4777 27.0465 54.4777 27.1564V28.801C54.4777 28.9108 54.3887 28.9998 54.2789 28.9998C54.1691 28.9998 54.0801 28.9108 54.0801 28.801V27.1564ZM55.6707 26.3394C55.6707 26.2296 55.5816 26.1406 55.4718 26.1406C55.362 26.1406 55.273 26.2296 55.273 26.3394V28.801C55.273 28.9108 55.362 28.9998 55.4718 28.9998C55.5816 28.9998 55.6707 28.9108 55.6707 28.801V26.3394ZM56.466 27.1564C56.466 27.0465 56.555 26.9575 56.6648 26.9575C56.7746 26.9575 56.8636 27.0465 56.8636 27.1564V28.801C56.8636 28.9108 56.7746 28.9998 56.6648 28.9998C56.555 28.9998 56.466 28.9108 56.466 28.801V27.1564ZM58.0565 27.1564C58.0565 27.0466 57.9675 26.9575 57.8577 26.9575C57.7479 26.9575 57.6589 27.0466 57.6589 27.1564V28.801C57.6589 28.9108 57.7479 28.9998 57.8577 28.9998C57.9675 28.9998 58.0565 28.9108 58.0565 28.801V27.1564ZM58.8518 27.1564C58.8518 27.0466 58.9409 26.9575 59.0507 26.9575C59.1605 26.9575 59.2495 27.0466 59.2495 27.1564V28.801C59.2495 28.9108 59.1605 28.9998 59.0507 28.9998C58.9409 28.9998 58.8518 28.9108 58.8518 28.801V27.1564ZM60.4424 27.1564C60.4424 27.0466 60.3534 26.9575 60.2436 26.9575C60.1338 26.9575 60.0448 27.0466 60.0448 27.1564V28.801C60.0448 28.9108 60.1338 28.9998 60.2436 28.9998C60.3534 28.9998 60.4424 28.9108 60.4424 28.801V27.1564Z" fill="black"/>
<defs>
<linearGradient id="paint0_linear_1603_83" x1="34.0105" y1="5.71826" x2="34.0105" y2="21.7087" gradientUnits="userSpaceOnUse">
<stop stop-color="#4270FB"/>
<stop offset="1" stop-color="#3452AB"/>
</linearGradient>
<linearGradient id="paint1_linear_1603_83" x1="4.95691" y1="5.71826" x2="4.95691" y2="21.7087" gradientUnits="userSpaceOnUse">
<stop stop-color="#4270FB"/>
<stop offset="1" stop-color="#3452AB"/>
</linearGradient>
<linearGradient id="paint2_linear_1603_83" x1="49.3083" y1="5.71826" x2="49.3083" y2="22.0563" gradientUnits="userSpaceOnUse">
<stop stop-color="#4270FB"/>
<stop offset="1" stop-color="#3452AB"/>
</linearGradient>
<linearGradient id="paint3_linear_1603_83" x1="58.8687" y1="18.5508" x2="58.8687" y2="21.7011" gradientUnits="userSpaceOnUse">
<stop stop-color="#4270FB"/>
<stop offset="1" stop-color="#3452AB"/>
</linearGradient>
<linearGradient id="paint4_linear_1603_83" x1="68.5489" y1="5.71826" x2="68.5489" y2="21.7087" gradientUnits="userSpaceOnUse">
<stop stop-color="#4270FB"/>
<stop offset="1" stop-color="#3452AB"/>
</linearGradient>
<linearGradient id="paint5_linear_1603_83" x1="81.5777" y1="5.71826" x2="81.5777" y2="21.8825" gradientUnits="userSpaceOnUse">
<stop stop-color="#4270FB"/>
<stop offset="1" stop-color="#3452AB"/>
</linearGradient>
<linearGradient id="paint6_linear_1603_83" x1="19.4847" y1="5.71826" x2="19.4847" y2="22.0563" gradientUnits="userSpaceOnUse">
<stop stop-color="#4270FB"/>
<stop offset="1" stop-color="#3452AB"/>
</linearGradient>
</defs>
</svg>
