<svg width="126" height="40" viewBox="0 0 126 40" fill="none" xmlns="http://www.w3.org/2000/svg">
<path d="M39.918 8.29884C39.918 8.0715 40.1064 7.88721 40.3389 7.88721H56.3804C56.6129 7.88721 56.8013 8.0715 56.8013 8.29884V11.671C56.8013 11.8983 56.6129 12.0826 56.3804 12.0826H50.895C50.6626 12.0826 50.4741 12.2669 50.4741 12.4942V29.5313C50.4741 29.7586 50.2856 29.9429 50.0532 29.9429H46.4516C46.2191 29.9429 46.0307 29.7586 46.0307 29.5313V12.4942C46.0307 12.2669 45.8422 12.0826 45.6097 12.0826H40.3389C40.1064 12.0826 39.918 11.8983 39.918 11.671V8.29884Z" fill="url(#paint0_linear_1603_597)"/>
<path d="M0 8.29884C0 8.0715 0.188461 7.88721 0.420939 7.88721H13.6755C13.9079 7.88721 14.0964 8.0715 14.0964 8.29884V11.671C14.0964 11.8983 13.9079 12.0826 13.6755 12.0826H4.86437C4.63189 12.0826 4.44343 12.2669 4.44343 12.4942V16.6755C4.44343 16.9028 4.63189 17.0871 4.86437 17.0871H12.3884C12.6209 17.0871 12.8093 17.2714 12.8093 17.4987V20.8708C12.8093 21.0982 12.6209 21.2825 12.3884 21.2825H4.86437C4.63189 21.2825 4.44343 21.4668 4.44343 21.6941V29.5313C4.44343 29.7586 4.25497 29.9429 4.02249 29.9429H0.420939C0.188461 29.9429 0 29.7586 0 29.5313V8.29884Z" fill="url(#paint1_linear_1603_597)"/>
<path fill-rule="evenodd" clip-rule="evenodd" d="M70.1118 30.4224C76.3573 30.4224 81.4202 25.3777 81.4202 19.1548C81.4202 12.9319 76.3573 7.88721 70.1118 7.88721C63.8664 7.88721 58.8035 12.9319 58.8035 19.1548C58.8035 25.3777 63.8664 30.4224 70.1118 30.4224ZM70.1118 26.4788C74.1714 26.4788 77.4623 23.1997 77.4623 19.1548C77.4623 15.1099 74.1714 11.8309 70.1118 11.8309C66.0523 11.8309 62.7614 15.1099 62.7614 19.1548C62.7614 23.1997 66.0523 26.4788 70.1118 26.4788Z" fill="url(#paint2_linear_1603_597)"/>
<path d="M81.5303 27.7752C81.5303 27.1559 81.755 26.6365 82.2045 26.217C82.6743 25.7974 83.1851 25.5876 83.7367 25.5876C84.2474 25.5876 84.7275 25.7974 85.177 26.217C85.6468 26.6365 85.8818 27.1559 85.8818 27.7752C85.8818 28.4345 85.6468 28.9639 85.177 29.3635C84.7275 29.7431 84.2474 29.9329 83.7367 29.9329C83.1851 29.9329 82.6743 29.7431 82.2045 29.3635C81.755 28.9639 81.5303 28.4345 81.5303 27.7752Z" fill="url(#paint3_linear_1603_597)"/>
<path d="M95.8059 7.88721C97.2155 7.88721 98.4719 8.06701 99.5751 8.42661C100.678 8.76624 101.598 9.26569 102.333 9.92497C103.089 10.5643 103.661 11.3434 104.049 12.2624C104.437 13.1614 104.631 14.1803 104.631 15.319C104.631 16.218 104.488 17.1171 104.202 18.0161C103.937 18.9151 103.487 19.7342 102.854 20.4734C102.241 21.2125 101.424 21.8119 100.403 22.2714C99.381 22.7109 98.1144 22.9307 96.6026 22.9307H93.8365C93.6041 22.9307 93.4156 23.115 93.4156 23.3423V29.5313C93.4156 29.7586 93.2271 29.9429 92.9947 29.9429H89.3931C89.1606 29.9429 88.9722 29.7586 88.9722 29.5313V8.29884C88.9722 8.0715 89.1606 7.88721 89.3931 7.88721H95.8059ZM96.572 18.7353C97.2461 18.7353 97.808 18.6254 98.2574 18.4056C98.7069 18.1859 99.0542 17.9062 99.2993 17.5666C99.5649 17.2269 99.7488 16.8773 99.8509 16.5177C99.9735 16.1381 100.035 15.7885 100.035 15.4689C100.035 15.2291 99.9939 14.9295 99.9122 14.5699C99.8509 14.1903 99.7079 13.8107 99.4832 13.4311C99.2585 13.0515 98.9112 12.7319 98.4413 12.4722C97.9918 12.2124 97.3789 12.0826 96.6026 12.0826H93.8365C93.6041 12.0826 93.4156 12.2669 93.4156 12.4942V18.3236C93.4156 18.551 93.6041 18.7353 93.8365 18.7353H96.572ZM100.503 21.4377C100.65 21.4343 100.788 21.5061 100.867 21.6271L105.902 29.3092C106.081 29.5832 105.88 29.9429 105.547 29.9429H101.364C101.223 29.9429 101.091 29.8739 101.013 29.7591L95.8607 22.1742C95.6772 21.9042 95.8702 21.5424 96.2016 21.5349L100.503 21.4377Z" fill="url(#paint4_linear_1603_597)"/>
<path d="M111.308 21.7919C111.308 22.4911 111.522 23.1604 111.951 23.7997C112.38 24.439 112.942 24.9584 113.637 25.358C114.352 25.7575 115.128 25.9573 115.966 25.9573C116.885 25.9573 117.702 25.7575 118.417 25.358C119.132 24.9584 119.694 24.439 120.103 23.7997C120.532 23.1604 120.746 22.4911 120.746 21.7919V8.29884C120.746 8.0715 120.935 7.88721 121.167 7.88721H124.707C124.94 7.88721 125.128 8.0715 125.128 8.29884V21.8818C125.128 23.5 124.72 24.9384 123.903 26.1971C123.085 27.4357 121.982 28.4146 120.593 29.1338C119.204 29.8331 117.661 30.1827 115.966 30.1827C114.29 30.1827 112.758 29.8331 111.369 29.1338C110 28.4146 108.907 27.4357 108.09 26.1971C107.273 24.9384 106.864 23.5 106.864 21.8818V8.29884C106.864 8.0715 107.053 7.88721 107.285 7.88721H110.887C111.119 7.88721 111.308 8.0715 111.308 8.29884V21.7919Z" fill="url(#paint5_linear_1603_597)"/>
<path fill-rule="evenodd" clip-rule="evenodd" d="M27.7056 30.4224C33.951 30.4224 39.014 25.3777 39.014 19.1548C39.014 12.9319 33.951 7.88721 27.7056 7.88721C21.4601 7.88721 16.3972 12.9319 16.3972 19.1548C16.3972 25.3777 21.4601 30.4224 27.7056 30.4224ZM27.7056 26.4788C31.7651 26.4788 35.056 23.1997 35.056 19.1548C35.056 15.1099 31.7651 11.8309 27.7056 11.8309C23.6461 11.8309 20.3551 15.1099 20.3551 19.1548C20.3551 23.1997 23.6461 26.4788 27.7056 26.4788Z" fill="url(#paint6_linear_1603_597)"/>
<path fill-rule="evenodd" clip-rule="evenodd" d="M69.2639 15.5292C69.2639 15.37 69.1105 15.2553 68.9623 15.3148C67.6545 15.8397 66.7195 17.2348 66.7195 18.8732C66.7195 20.5116 67.6545 21.9067 68.9623 22.4316C69.1105 22.4911 69.2639 22.3764 69.2639 22.2172C69.2639 22.1142 69.1972 22.0237 69.1014 21.985C67.9595 21.5242 67.1435 20.3049 67.1435 18.8732C67.1435 17.4415 67.9595 16.2222 69.1014 15.7614C69.1972 15.7228 69.2639 15.6322 69.2639 15.5292ZM70.9601 22.2172C70.9601 22.1142 71.0268 22.0237 71.1226 21.985C72.2645 21.5242 73.0804 20.3049 73.0804 18.8732C73.0804 17.4415 72.2645 16.2222 71.1226 15.7614C71.0268 15.7228 70.9601 15.6322 70.9601 15.5292C70.9601 15.37 71.1135 15.2553 71.2617 15.3148C72.5695 15.8397 73.5045 17.2348 73.5045 18.8732C73.5045 20.5116 72.5695 21.9067 71.2617 22.4316C71.1135 22.4911 70.9601 22.3764 70.9601 22.2172Z" fill="black"/>
<path fill-rule="evenodd" clip-rule="evenodd" d="M87.3561 0.56338C87.2006 0.56338 87.0744 0.437263 87.0744 0.28169C87.0744 0.126117 87.2006 0 87.3561 0H89.3361C91.522 0 93.294 1.76564 93.294 3.94366V5.91447C93.294 6.07061 93.1675 6.19718 93.0113 6.19718C92.8552 6.19718 92.7286 6.07061 92.7286 5.91447V3.94366C92.7286 2.07678 91.2097 0.56338 89.3361 0.56338H87.3561ZM87.0744 38.5915C87.0744 38.436 87.2006 38.3098 87.3561 38.3098H89.3361C91.2097 38.3098 92.7286 36.7965 92.7286 34.9296V32.9588C92.7286 32.8026 92.8552 32.676 93.0113 32.676C93.1675 32.676 93.294 32.8026 93.294 32.9588V34.9296C93.294 37.1076 91.522 38.8732 89.3361 38.8732H87.3561C87.2006 38.8732 87.0744 38.7471 87.0744 38.5915ZM47.2124 32.676C47.3685 32.676 47.4951 32.8026 47.4951 32.9588V34.9296C47.4951 36.7964 49.014 38.3098 50.8876 38.3098H52.8676C53.0232 38.3098 53.1493 38.436 53.1493 38.5915C53.1493 38.7471 53.0232 38.8732 52.8676 38.8732H50.8876C48.7017 38.8732 46.9297 37.1076 46.9297 34.9296V32.9588C46.9297 32.8026 47.0563 32.676 47.2124 32.676ZM53.1493 0.28169C53.1493 0.437263 53.0232 0.56338 52.8676 0.56338H50.8876C49.014 0.56338 47.4951 2.07678 47.4951 3.94366V5.91447C47.4951 6.07061 47.3685 6.19718 47.2124 6.19718C47.0563 6.19718 46.9297 6.07061 46.9297 5.91447V3.94366C46.9297 1.76564 48.7017 0 50.8876 0H52.8676C53.0232 0 53.1493 0.126117 53.1493 0.28169Z" fill="black"/>
<path fill-rule="evenodd" clip-rule="evenodd" d="M62.7616 4.33797H59.3691C59.2754 4.33797 59.1995 4.41364 59.1995 4.50698V6.7605C59.1995 6.85385 59.2754 6.92952 59.3691 6.92952H62.7616C62.8553 6.92952 62.9313 6.85385 62.9313 6.7605V4.50698C62.9313 4.41364 62.8553 4.33797 62.7616 4.33797ZM59.3691 3.9436C59.0569 3.9436 58.8037 4.19584 58.8037 4.50698V6.7605C58.8037 7.07165 59.0569 7.32388 59.3691 7.32388H62.7616C63.0739 7.32388 63.3271 7.07165 63.3271 6.7605V4.50698C63.3271 4.19584 63.0739 3.9436 62.7616 3.9436H59.3691Z" fill="black"/>
<path fill-rule="evenodd" clip-rule="evenodd" d="M62.7616 31.3802H59.3691C59.2754 31.3802 59.1995 31.4559 59.1995 31.5492V33.8027C59.1995 33.8961 59.2754 33.9718 59.3691 33.9718H62.7616C62.8553 33.9718 62.9313 33.8961 62.9313 33.8027V31.5492C62.9313 31.4559 62.8553 31.3802 62.7616 31.3802ZM59.3691 30.9858C59.0569 30.9858 58.8037 31.2381 58.8037 31.5492V33.8027C58.8037 34.1139 59.0569 34.3661 59.3691 34.3661H62.7616C63.0739 34.3661 63.3271 34.1139 63.3271 33.8027V31.5492C63.3271 31.2381 63.0739 30.9858 62.7616 30.9858H59.3691Z" fill="black"/>
<path fill-rule="evenodd" clip-rule="evenodd" d="M80.8549 4.33797H77.4624C77.3687 4.33797 77.2928 4.41364 77.2928 4.50698V6.7605C77.2928 6.85385 77.3687 6.92952 77.4624 6.92952H80.8549C80.9486 6.92952 81.0245 6.85385 81.0245 6.7605V4.50698C81.0245 4.41364 80.9486 4.33797 80.8549 4.33797ZM77.4624 3.9436C77.1501 3.9436 76.897 4.19584 76.897 4.50698V6.7605C76.897 7.07165 77.1501 7.32388 77.4624 7.32388H80.8549C81.1672 7.32388 81.4203 7.07165 81.4203 6.7605V4.50698C81.4203 4.19584 81.1672 3.9436 80.8549 3.9436H77.4624Z" fill="black"/>
<path fill-rule="evenodd" clip-rule="evenodd" d="M80.8549 31.3802H77.4624C77.3687 31.3802 77.2928 31.4559 77.2928 31.5492V33.8027C77.2928 33.8961 77.3687 33.9718 77.4624 33.9718H80.8549C80.9486 33.9718 81.0245 33.8961 81.0245 33.8027V31.5492C81.0245 31.4559 80.9486 31.3802 80.8549 31.3802ZM77.4624 30.9858C77.1501 30.9858 76.897 31.2381 76.897 31.5492V33.8027C76.897 34.1139 77.1501 34.3661 77.4624 34.3661H80.8549C81.1672 34.3661 81.4203 34.1139 81.4203 33.8027V31.5492C81.4203 31.2381 81.1672 30.9858 80.8549 30.9858H77.4624Z" fill="black"/>
<path fill-rule="evenodd" clip-rule="evenodd" d="M87.0746 17.8592H83.6821C83.5884 17.8592 83.5125 17.9349 83.5125 18.0282V20.2817C83.5125 20.3751 83.5884 20.4508 83.6821 20.4508H87.0746C87.1683 20.4508 87.2443 20.3751 87.2443 20.2817V18.0282C87.2443 17.9349 87.1683 17.8592 87.0746 17.8592ZM83.6821 17.4648C83.3698 17.4648 83.1167 17.7171 83.1167 18.0282V20.2817C83.1167 20.5929 83.3698 20.8451 83.6821 20.8451H87.0746C87.3869 20.8451 87.6401 20.5929 87.6401 20.2817V18.0282C87.6401 17.7171 87.3869 17.4648 87.0746 17.4648H83.6821Z" fill="black"/>
<path fill-rule="evenodd" clip-rule="evenodd" d="M56.5419 17.8592H53.1494C53.0557 17.8592 52.9798 17.9349 52.9798 18.0282V20.2817C52.9798 20.3751 53.0557 20.4508 53.1494 20.4508H56.5419C56.6356 20.4508 56.7115 20.3751 56.7115 20.2817V18.0282C56.7115 17.9349 56.6356 17.8592 56.5419 17.8592ZM53.1494 17.4648C52.8371 17.4648 52.584 17.7171 52.584 18.0282V20.2817C52.584 20.5929 52.8371 20.8451 53.1494 20.8451H56.5419C56.8542 20.8451 57.1073 20.5929 57.1073 20.2817V18.0282C57.1073 17.7171 56.8542 17.4648 56.5419 17.4648H53.1494Z" fill="black"/>
<path fill-rule="evenodd" clip-rule="evenodd" d="M70.112 36.3391C70.112 36.183 70.2386 36.0564 70.3947 36.0564C70.5509 36.0564 70.6774 36.183 70.6774 36.3391V39.7173C70.6774 39.8735 70.5509 40.0001 70.3947 40.0001C70.2386 40.0001 70.112 39.8735 70.112 39.7173V36.3391ZM62.1961 36.3391C62.1961 36.183 62.0696 36.0564 61.9134 36.0564C61.7573 36.0564 61.6307 36.183 61.6307 36.3391V39.7174C61.6307 39.8735 61.7573 40.0001 61.9134 40.0001C62.0696 40.0001 62.1961 39.8735 62.1961 39.7174V36.3391ZM54.8457 37.4659C54.8457 37.3097 54.9723 37.1832 55.1284 37.1832C55.2845 37.1832 55.4111 37.3097 55.4111 37.4659V39.7174C55.4111 39.8735 55.2845 40.0001 55.1284 40.0001C54.9723 40.0001 54.8457 39.8735 54.8457 39.7174V37.4659ZM56.542 37.4659C56.542 37.3097 56.6685 37.1832 56.8247 37.1832C56.9808 37.1832 57.1074 37.3097 57.1074 37.4659V39.7174C57.1074 39.8735 56.9808 40.0001 56.8247 40.0001C56.6685 40.0001 56.542 39.8735 56.542 39.7174V37.4659ZM58.8036 37.4659C58.8036 37.3097 58.6771 37.1832 58.5209 37.1832C58.3648 37.1832 58.2382 37.3097 58.2382 37.4659V39.7174C58.2382 39.8735 58.3648 40.0001 58.5209 40.0001C58.6771 40.0001 58.8036 39.8735 58.8036 39.7174V37.4659ZM59.9345 37.4659C59.9345 37.3097 60.061 37.1832 60.2172 37.1832C60.3733 37.1832 60.4999 37.3097 60.4999 37.4659V39.7174C60.4999 39.8735 60.3733 40.0001 60.2172 40.0001C60.061 40.0001 59.9345 39.8735 59.9345 39.7174V37.4659ZM63.327 37.4659C63.327 37.3097 63.4536 37.1832 63.6097 37.1832C63.7658 37.1832 63.8924 37.3097 63.8924 37.4659V39.7173C63.8924 39.8735 63.7658 40.0001 63.6097 40.0001C63.4536 40.0001 63.327 39.8735 63.327 39.7173V37.4659ZM65.5887 37.4659C65.5887 37.3097 65.4621 37.1832 65.306 37.1832C65.1498 37.1832 65.0233 37.3097 65.0233 37.4659V39.7173C65.0233 39.8735 65.1498 40.0001 65.306 40.0001C65.4621 40.0001 65.5887 39.8735 65.5887 39.7173V37.4659ZM66.7195 37.4659C66.7195 37.3097 66.8461 37.1832 67.0022 37.1832C67.1584 37.1832 67.2849 37.3097 67.2849 37.4659V39.7174C67.2849 39.8735 67.1584 40.0001 67.0022 40.0001C66.8461 40.0001 66.7195 39.8735 66.7195 39.7174V37.4659ZM68.9812 37.4659C68.9812 37.3097 68.8546 37.1832 68.6985 37.1832C68.5423 37.1832 68.4158 37.3097 68.4158 37.4659V39.7174C68.4158 39.8735 68.5423 40.0001 68.6985 40.0001C68.8546 40.0001 68.9812 39.8735 68.9812 39.7174V37.4659ZM72.3737 37.4659C72.3737 37.3097 72.2471 37.1832 72.091 37.1832C71.9348 37.1832 71.8083 37.3097 71.8083 37.4659V39.7173C71.8083 39.8735 71.9348 40.0001 72.091 40.0001C72.2471 40.0001 72.3737 39.8735 72.3737 39.7173V37.4659ZM73.5045 37.4659C73.5045 37.3097 73.6311 37.1832 73.7872 37.1832C73.9434 37.1832 74.0699 37.3097 74.0699 37.4659V39.7173C74.0699 39.8735 73.9434 40.0001 73.7872 40.0001C73.6311 40.0001 73.5045 39.8735 73.5045 39.7173V37.4659ZM75.7662 37.4659C75.7662 37.3097 75.6396 37.1832 75.4835 37.1832C75.3274 37.1832 75.2008 37.3097 75.2008 37.4659V39.7173C75.2008 39.8735 75.3274 40.0001 75.4835 40.0001C75.6396 40.0001 75.7662 39.8735 75.7662 39.7173V37.4659ZM76.897 37.4659C76.897 37.3097 77.0236 37.1832 77.1797 37.1832C77.3359 37.1832 77.4625 37.3097 77.4625 37.4659V39.7174C77.4625 39.8735 77.3359 40.0001 77.1797 40.0001C77.0236 40.0001 76.897 39.8735 76.897 39.7174V37.4659ZM79.1587 36.3391C79.1587 36.183 79.0321 36.0564 78.876 36.0564C78.7199 36.0564 78.5933 36.183 78.5933 36.3391V39.7173C78.5933 39.8735 78.7199 40.0001 78.876 40.0001C79.0321 40.0001 79.1587 39.8735 79.1587 39.7173V36.3391ZM80.2896 37.4659C80.2896 37.3097 80.4161 37.1832 80.5723 37.1832C80.7284 37.1832 80.855 37.3097 80.855 37.4659V39.7174C80.855 39.8735 80.7284 40.0001 80.5723 40.0001C80.4161 40.0001 80.2896 39.8735 80.2896 39.7174V37.4659ZM82.5512 37.4659C82.5512 37.3097 82.4247 37.1832 82.2685 37.1832C82.1124 37.1832 81.9858 37.3097 81.9858 37.4659V39.7174C81.9858 39.8735 82.1124 40.0001 82.2685 40.0001C82.4247 40.0001 82.5512 39.8735 82.5512 39.7174V37.4659ZM83.6821 37.4659C83.6821 37.3097 83.8086 37.1832 83.9648 37.1832C84.1209 37.1832 84.2475 37.3097 84.2475 37.4659V39.7174C84.2475 39.8735 84.1209 40.0001 83.9648 40.0001C83.8086 40.0001 83.6821 39.8735 83.6821 39.7174V37.4659ZM85.9437 37.4659C85.9437 37.3097 85.8172 37.1832 85.661 37.1832C85.5049 37.1832 85.3783 37.3097 85.3783 37.4659V39.7174C85.3783 39.8735 85.5049 40.0001 85.661 40.0001C85.8172 40.0001 85.9437 39.8735 85.9437 39.7174V37.4659Z" fill="black"/>
<defs>
<linearGradient id="paint0_linear_1603_597" x1="48.3596" y1="7.88721" x2="48.3596" y2="29.9429" gradientUnits="userSpaceOnUse">
<stop stop-color="#4270FB"/>
<stop offset="1" stop-color="#3452AB"/>
</linearGradient>
<linearGradient id="paint1_linear_1603_597" x1="7.0482" y1="7.88721" x2="7.0482" y2="29.9429" gradientUnits="userSpaceOnUse">
<stop stop-color="#4270FB"/>
<stop offset="1" stop-color="#3452AB"/>
</linearGradient>
<linearGradient id="paint2_linear_1603_597" x1="70.1118" y1="7.88721" x2="70.1118" y2="30.4224" gradientUnits="userSpaceOnUse">
<stop stop-color="#4270FB"/>
<stop offset="1" stop-color="#3452AB"/>
</linearGradient>
<linearGradient id="paint3_linear_1603_597" x1="83.706" y1="25.5876" x2="83.706" y2="29.9329" gradientUnits="userSpaceOnUse">
<stop stop-color="#4270FB"/>
<stop offset="1" stop-color="#3452AB"/>
</linearGradient>
<linearGradient id="paint4_linear_1603_597" x1="97.4705" y1="7.88721" x2="97.4705" y2="29.9429" gradientUnits="userSpaceOnUse">
<stop stop-color="#4270FB"/>
<stop offset="1" stop-color="#3452AB"/>
</linearGradient>
<linearGradient id="paint5_linear_1603_597" x1="115.996" y1="7.88721" x2="115.996" y2="30.1827" gradientUnits="userSpaceOnUse">
<stop stop-color="#4270FB"/>
<stop offset="1" stop-color="#3452AB"/>
</linearGradient>
<linearGradient id="paint6_linear_1603_597" x1="27.7056" y1="7.88721" x2="27.7056" y2="30.4224" gradientUnits="userSpaceOnUse">
<stop stop-color="#4270FB"/>
<stop offset="1" stop-color="#3452AB"/>
</linearGradient>
</defs>
</svg>
