<svg width="30" height="30" viewBox="0 0 30 30" fill="none" xmlns="http://www.w3.org/2000/svg">
<path d="M8.22209 17.2917C8.33618 17.0941 8.62144 17.0941 8.73561 17.2917L15.28 28.6211C15.3938 28.818 15.2526 29.0657 15.0251 29.066C15.0182 29.066 15.0112 29.066 15.0042 29.066C10.7946 29.066 7.00431 27.2713 4.35642 24.4053C4.2681 24.3097 4.25211 24.1679 4.31712 24.0553L8.22209 17.2917ZM14.2344 21.3614L27.3024 21.3735C27.53 21.3737 27.6735 21.6203 27.5596 21.8173C25.5675 25.2618 22.1988 27.8103 18.2056 28.7106C18.0786 28.7393 17.9476 28.6823 17.8825 28.5697L13.9773 21.8058C13.8631 21.6079 14.006 21.3611 14.2344 21.3614ZM2.44311 7.33661C4.43687 3.88282 7.81415 1.32822 11.8176 0.430015C11.9446 0.40151 12.0754 0.458278 12.1405 0.571088L16.0477 7.33869C16.1619 7.53653 16.0192 7.78353 15.7908 7.78346L2.70057 7.78104C2.47301 7.78099 2.3293 7.53373 2.44311 7.33661ZM1.44381 10.0594H9.2571C9.48538 10.0594 9.62806 10.3066 9.51386 10.5042L2.96991 21.8307C2.85553 22.0285 2.57044 22.0276 2.45584 21.8299C1.21877 19.6956 0.510365 17.2167 0.510365 14.5722C0.510365 13.0735 0.737991 11.6281 1.16031 10.2683C1.19884 10.1441 1.31375 10.0594 1.44381 10.0594ZM14.9991 0.0783691C15.0008 0.0783691 15.0025 0.0783691 15.0042 0.0783691C19.2132 0.0783691 23.0029 1.87259 25.6507 4.73769C25.7391 4.83311 25.7551 4.97515 25.69 5.08782L21.7857 11.8503C21.6715 12.0482 21.386 12.0479 21.272 11.8501L14.744 0.52292C14.6305 0.326045 14.7717 0.0784175 14.9991 0.0783691ZM28.5615 19.0952H20.7454C20.5171 19.0952 20.3745 18.8481 20.4887 18.6504L27.0376 7.31202C27.1519 7.11394 27.437 7.1149 27.5516 7.31275C28.7893 9.44743 29.498 11.927 29.498 14.5722C29.498 16.0747 29.2692 17.5237 28.8449 18.8865C28.8063 19.0107 28.6914 19.0952 28.5615 19.0952Z" fill="#3D70F3"/>
</svg>
