<svg width="16" height="16" viewBox="0 0 16 16" fill="none" xmlns="http://www.w3.org/2000/svg">
<path fill-rule="evenodd" clip-rule="evenodd" d="M2.69639 7.9999C3.50503 10.1435 5.57601 11.6666 8.00033 11.6666C10.4246 11.6666 12.4956 10.1435 13.3042 7.99994C12.4956 5.85631 10.4246 4.33325 8.00031 4.33325C5.57601 4.33325 3.50504 5.85629 2.69639 7.9999ZM0.684807 7.70024C1.66147 4.59071 4.56595 2.33325 8.00031 2.33325C11.4347 2.33325 14.3392 4.59074 15.3158 7.7003C15.3771 7.89537 15.3771 8.10453 15.3158 8.2996C14.3392 11.4091 11.4347 13.6666 8.00033 13.6666C4.56595 13.6666 1.66145 11.4091 0.684805 8.29954C0.623538 8.10447 0.623539 7.89531 0.684807 7.70024ZM8.00002 6.99992C7.44774 6.99992 7.00002 7.44763 7.00002 7.99992C7.00002 8.5522 7.44774 8.99992 8.00002 8.99992C8.5523 8.99992 9.00002 8.5522 9.00002 7.99992C9.00002 7.44763 8.5523 6.99992 8.00002 6.99992ZM5.00002 7.99992C5.00002 6.34306 6.34317 4.99992 8.00002 4.99992C9.65687 4.99992 11 6.34306 11 7.99992C11 9.65677 9.65687 10.9999 8.00002 10.9999C6.34317 10.9999 5.00002 9.65677 5.00002 7.99992Z" fill="#BFC5D6"/>
</svg>
