<svg width="29" height="30" viewBox="0 0 29 30" fill="none" xmlns="http://www.w3.org/2000/svg">
<path d="M1.66492 23.4304C4.54105 27.041 8.97619 29.3586 13.9523 29.3586C19.7881 29.3586 24.8807 26.1725 27.5875 21.4471C26.167 20.7984 25.1775 19.8969 24.1836 19.0635C22.242 22.729 18.3896 25.2247 13.9523 25.2247C10.3989 25.2247 7.21928 23.6218 5.09737 21.1018C4.34975 21.8868 3.27889 22.7246 1.66492 23.4304Z" fill="#4C3933"/>
<path fill-rule="evenodd" clip-rule="evenodd" d="M2.15753 20.2312C1.70236 14.369 3.86606 9.4589 8.26821 6.28592C9.02682 5.7384 9.55236 5.42616 10.3725 5.03696C10.7397 4.86325 11.0982 4.69613 11.5555 4.52902C12.1294 4.31793 12.1932 4.3751 12.6198 4.06286C8.56726 3.55272 3.43068 5.5559 1.59901 8.02304C-0.0611413 10.2593 -0.0655392 16.4931 1.71335 19.6397L2.05418 20.1169C2.06957 20.0883 2.12015 20.196 2.15753 20.2312Z" fill="#4C3933"/>
<path fill-rule="evenodd" clip-rule="evenodd" d="M26.5233 18.7887C28.3264 14.5845 27.504 10.5803 25.7757 6.9082C25.2216 8.18795 27.4139 14.2569 20.2345 20.715C18.9482 21.8716 17.7894 22.1904 16.1776 23.1117C19.9377 23.6461 25.4855 21.2097 26.5233 18.7887Z" fill="#4C3933"/>
<path fill-rule="evenodd" clip-rule="evenodd" d="M23.1083 16.759C25.1247 14.4546 26.6111 8.0009 24.4628 5.06979C22.7895 2.78296 18.5346 -0.0799795 14.238 0.0849364L14.4777 0.260847C14.5129 0.282835 14.6756 0.386183 14.724 0.414768C17.3956 1.9232 19.4604 3.23593 21.2063 6.28138C22.9918 9.39719 23.7372 12.6471 23.1083 16.759Z" fill="#4C3933"/>
<path fill-rule="evenodd" clip-rule="evenodd" d="M6.37952 19.5955C7.13813 21.5481 9.5591 24.1186 11.1159 25.1784C12.0856 25.8381 14.2933 27.0365 15.3861 27.1068C16.9935 27.2124 20.3292 25.66 21.466 24.9343C22.7458 24.1186 24.7907 22.1659 25.4394 20.7697C24.1267 21.3062 23.1372 22.3111 21.0988 22.9026C16.6373 24.1977 12.0438 23.5446 8.20239 20.9939C7.53173 20.5498 6.98421 19.9693 6.37952 19.5955Z" fill="#4C3933"/>
<path fill-rule="evenodd" clip-rule="evenodd" d="M2.18616 6.84642C7.31174 3.43816 10.9553 2.52122 17.2221 4.84104C19.2033 5.57547 20.0235 6.499 21.3098 7.38734C20.6765 5.73159 18.8844 3.67564 17.7542 2.81587C16.6614 1.9825 14.0777 -0.0492651 12.0569 0.164026C7.70974 0.623592 3.45051 4.08463 2.18616 6.84642Z" fill="#4C3933"/>
<path fill-rule="evenodd" clip-rule="evenodd" d="M14.0646 27.2214C13.1345 26.5639 12.2813 26.5551 9.99891 24.8114C8.87089 23.9494 7.75386 22.6147 6.89849 21.3569C4.68422 18.1026 4.36978 15.5431 4.50611 11.02C2.7646 13.9753 1.16382 19.8661 3.73211 22.6719C4.41156 23.4129 4.84914 23.8417 5.67592 24.4618C7.94296 26.1615 11.006 27.3577 14.0646 27.2214Z" fill="#4C3933"/>
<path fill-rule="evenodd" clip-rule="evenodd" d="M19.2825 16.7964C20.3049 16.7239 21.433 15.1824 21.732 14.6921C23.1723 16.4446 24.4278 17.5748 28.2957 20.009C28.1198 20.3806 27.7921 21.0908 27.5898 21.4471C25.7735 20.6181 23.4603 19.2042 22.1454 18.2191L21.2768 18.7226L21.0636 18.0344C20.3709 18.4962 19.4342 19.1998 18.7327 18.6237L16.1601 15.7014L14.6956 17.179L13.9216 15.3408C13.2531 16.0686 11.8722 17.6056 11.3841 18.2169L10.1967 19.6879C9.69755 20.3102 8.6069 19.158 7.92525 18.8612L7.42171 19.7451L6.55975 19.1294C5.88029 20.1585 4.4884 22.3376 1.66064 23.4304C1.41877 23.127 1.04936 22.5927 0.829468 22.2716C3.64403 20.5543 4.93917 17.654 6.50257 15.299C7.15784 15.9762 8.93014 17.588 9.55022 17.6408C11.5094 15.3606 13.053 13.9159 14.5483 11.7588C15.2563 12.0732 18.0555 15.9455 19.2825 16.7964Z" fill="url(#paint0_linear_1603_436)"/>
<defs>
<linearGradient id="paint0_linear_1603_436" x1="14.5626" y1="11.7588" x2="14.5626" y2="23.4304" gradientUnits="userSpaceOnUse">
<stop stop-color="#FF6760"/>
<stop offset="1" stop-color="#CF3C35"/>
</linearGradient>
</defs>
</svg>
