<svg width="16" height="16" viewBox="0 0 16 16" fill="none" xmlns="http://www.w3.org/2000/svg">
<path fill-rule="evenodd" clip-rule="evenodd" d="M11.089 3.70406C10.6389 3.66728 10.0566 3.6665 9.2 3.6665H6.66667C5.87417 3.6665 5.33547 3.66717 4.91802 3.69878C4.51098 3.72961 4.30123 3.78559 4.15476 3.85389C3.72861 4.05261 3.3861 4.39512 3.18739 4.82127C3.11909 4.96773 3.0631 5.17749 3.03228 5.58452C3.00067 6.00198 3 6.54068 3 7.33317C3 8.12566 3.00067 8.66437 3.03228 9.08182C3.0631 9.48885 3.11909 9.69861 3.18739 9.84507C3.3861 10.2712 3.72861 10.6137 4.15476 10.8125C4.30123 10.8807 4.51098 10.9367 4.91802 10.9676C5.33547 10.9992 5.87418 10.9998 6.66667 10.9998H10.5779C10.5939 10.9998 10.6097 10.9998 10.6254 10.9998C10.8607 10.9997 11.0683 10.9996 11.2771 11.0288C11.4609 11.0545 11.642 11.0973 11.8179 11.1565C12.0177 11.2237 12.2034 11.3167 12.4138 11.422C12.4278 11.429 12.4419 11.4361 12.4562 11.4432L13 11.7151V7.46651C13 6.60993 12.9992 6.02763 12.9625 5.57754C12.9266 5.13913 12.8617 4.91492 12.782 4.75852C12.5903 4.3822 12.2843 4.07624 11.908 3.88449C11.7516 3.8048 11.5274 3.73988 11.089 3.70406ZM1 7.37133C0.99999 8.11615 0.99998 8.7309 1.03799 9.23284C1.07744 9.75375 1.16199 10.234 1.37477 10.6903C1.7722 11.5426 2.45723 12.2276 3.30953 12.6251C3.76584 12.8378 4.24609 12.9224 4.767 12.9618C5.26894 12.9999 5.88369 12.9998 6.62851 12.9998H10.5779C10.8863 12.9998 10.9466 13.002 10.9998 13.0095C11.0611 13.0181 11.1214 13.0323 11.1801 13.052C11.231 13.0692 11.2859 13.0942 11.5618 13.2321L13.5528 14.2276C13.8628 14.3826 14.2309 14.366 14.5257 14.1838C14.8205 14.0016 15 13.6797 15 13.3332V7.42518C15 6.62022 15 5.95587 14.9558 5.41468C14.9099 4.85258 14.8113 4.33588 14.564 3.85054C14.1805 3.09789 13.5686 2.48597 12.816 2.10248C12.3306 1.85519 11.8139 1.75662 11.2518 1.7107C10.7106 1.66648 10.0463 1.66649 9.2413 1.6665H6.62851C5.88369 1.66649 5.26894 1.66648 4.767 1.70449C4.24609 1.74394 3.76584 1.82849 3.30953 2.04127C2.45723 2.43871 1.7722 3.12373 1.37477 3.97603C1.16199 4.43234 1.07744 4.91259 1.03799 5.4335C0.99998 5.93544 0.99999 6.5502 1 7.29501V7.37133Z" fill="#BFC5D6"/>
</svg>
