<svg width="29" height="30" viewBox="0 0 29 30" fill="none" xmlns="http://www.w3.org/2000/svg">
<path d="M1.37683 23.4304C4.25296 27.041 8.6881 29.3586 13.6642 29.3586C19.5 29.3586 24.5926 26.1725 27.2994 21.4471C25.8789 20.7984 24.8894 19.8969 23.8955 19.0635C21.9539 22.729 18.1015 25.2247 13.6642 25.2247C10.1108 25.2247 6.9312 23.6218 4.80928 21.1018C4.06166 21.8868 2.99081 22.7246 1.37683 23.4304Z" fill="#4C3933"/>
<path fill-rule="evenodd" clip-rule="evenodd" d="M1.86944 20.2312C1.41427 14.369 3.57797 9.4589 7.98012 6.28592C8.73874 5.7384 9.26427 5.42616 10.0845 5.03696C10.4517 4.86325 10.8101 4.69613 11.2674 4.52902C11.8414 4.31793 11.9051 4.3751 12.3317 4.06286C8.27917 3.55272 3.14259 5.5559 1.31093 8.02304C-0.349227 10.2593 -0.353625 16.4931 1.42527 19.6397L1.76609 20.1169C1.78149 20.0883 1.83206 20.196 1.86944 20.2312Z" fill="#4C3933"/>
<path fill-rule="evenodd" clip-rule="evenodd" d="M26.2353 18.7887C28.0383 14.5845 27.216 10.5803 25.4876 6.9082C24.9335 8.18795 27.1258 14.2569 19.9465 20.715C18.6601 21.8716 17.5013 22.1904 15.8895 23.1117C19.6496 23.6461 25.1974 21.2097 26.2353 18.7887Z" fill="#4C3933"/>
<path fill-rule="evenodd" clip-rule="evenodd" d="M22.8203 16.759C24.8367 14.4546 26.3232 8.0009 24.1749 5.06979C22.5015 2.78296 18.2467 -0.0799795 13.9501 0.0849364L14.1898 0.260847C14.2249 0.282835 14.3876 0.386183 14.436 0.414768C17.1077 1.9232 19.1724 3.23593 20.9183 6.28138C22.7038 9.39719 23.4492 12.6471 22.8203 16.759Z" fill="#4C3933"/>
<path fill-rule="evenodd" clip-rule="evenodd" d="M6.09143 19.5955C6.85004 21.5481 9.27101 24.1186 10.8278 25.1784C11.7975 25.8381 14.0052 27.0365 15.098 27.1068C16.7054 27.2124 20.0411 25.66 21.1779 24.9343C22.4577 24.1186 24.5026 22.1659 25.1513 20.7697C23.8386 21.3062 22.8491 22.3111 20.8107 22.9026C16.3492 24.1977 11.7557 23.5446 7.9143 20.9939C7.24364 20.5498 6.69612 19.9693 6.09143 19.5955Z" fill="#4C3933"/>
<path fill-rule="evenodd" clip-rule="evenodd" d="M1.89807 6.84642C7.02366 3.43816 10.6672 2.52122 16.934 4.84104C18.9152 5.57547 19.7354 6.499 21.0217 7.38734C20.3884 5.73159 18.5964 3.67564 17.4661 2.81587C16.3733 1.9825 13.7896 -0.0492651 11.7688 0.164026C7.42166 0.623592 3.16243 4.08463 1.89807 6.84642Z" fill="#4C3933"/>
<path fill-rule="evenodd" clip-rule="evenodd" d="M13.7767 27.2214C12.8465 26.5639 11.9934 26.5551 9.71095 24.8114C8.58292 23.9494 7.46589 22.6147 6.61053 21.3569C4.39626 18.1026 4.08182 15.5431 4.21815 11.02C2.47664 13.9753 0.875855 19.8661 3.44414 22.6719C4.1236 23.4129 4.56118 23.8417 5.38795 24.4618C7.655 26.1615 10.718 27.3577 13.7767 27.2214Z" fill="#4C3933"/>
<path fill-rule="evenodd" clip-rule="evenodd" d="M18.9944 16.7964C20.0169 16.7239 21.1449 15.1824 21.4439 14.6921C22.8842 16.4446 24.1397 17.5748 28.0076 20.009C27.8317 20.3806 27.504 21.0908 27.3017 21.4471C25.4855 20.6181 23.1722 19.2042 21.8573 18.2191L20.9888 18.7226L20.7755 18.0344C20.0828 18.4962 19.1461 19.1998 18.4447 18.6237L15.872 15.7014L14.4075 17.179L13.6335 15.3408C12.965 16.0686 11.5842 17.6056 11.096 18.2169L9.90861 19.6879C9.40946 20.3102 8.31882 19.158 7.63716 18.8612L7.13362 19.7451L6.27166 19.1294C5.59221 20.1585 4.20032 22.3376 1.37256 23.4304C1.13068 23.127 0.76127 22.5927 0.541382 22.2716C3.35595 20.5543 4.65109 17.654 6.21449 15.299C6.86975 15.9762 8.64205 17.588 9.26214 17.6408C11.2213 15.3606 12.7649 13.9159 14.2602 11.7588C14.9682 12.0732 17.7674 15.9455 18.9944 16.7964Z" fill="url(#paint0_linear_1603_416)"/>
<defs>
<linearGradient id="paint0_linear_1603_416" x1="14.2745" y1="11.7588" x2="14.2745" y2="23.4304" gradientUnits="userSpaceOnUse">
<stop stop-color="#FF6760"/>
<stop offset="1" stop-color="#CF3C35"/>
</linearGradient>
</defs>
</svg>
