<svg width="74" height="25" viewBox="0 0 74 25" fill="none" xmlns="http://www.w3.org/2000/svg">
<path d="M23.6072 5.05955C23.6072 4.92095 23.7186 4.80859 23.8561 4.80859H33.3429C33.4804 4.80859 33.5919 4.92095 33.5919 5.05955V7.11539C33.5919 7.25399 33.4804 7.36635 33.3429 7.36635H30.0989C29.9615 7.36635 29.85 7.47871 29.85 7.61731V18.0041C29.85 18.1427 29.7386 18.2551 29.6011 18.2551H27.4711C27.3336 18.2551 27.2222 18.1427 27.2222 18.0041V7.61731C27.2222 7.47871 27.1107 7.36635 26.9732 7.36635H23.8561C23.7186 7.36635 23.6072 7.25399 23.6072 7.11539V5.05955Z" fill="url(#paint0_linear_1603_909)"/>
<path d="M0 5.05955C0 4.92095 0.111454 4.80859 0.24894 4.80859H8.08758C8.22506 4.80859 8.33652 4.92095 8.33652 5.05955V7.11539C8.33652 7.25399 8.22506 7.36635 8.08758 7.36635H2.87676C2.73927 7.36635 2.62782 7.47871 2.62782 7.61731V10.1664C2.62782 10.305 2.73927 10.4174 2.87676 10.4174H7.32642C7.4639 10.4174 7.57536 10.5297 7.57536 10.6683V12.7242C7.57536 12.8628 7.4639 12.9751 7.32642 12.9751H2.87676C2.73927 12.9751 2.62782 13.0875 2.62782 13.2261V18.0041C2.62782 18.1427 2.51636 18.2551 2.37887 18.2551H0.248941C0.111455 18.2551 0 18.1427 0 18.0041V5.05955Z" fill="url(#paint1_linear_1603_909)"/>
<path fill-rule="evenodd" clip-rule="evenodd" d="M41.4638 18.5474C45.1573 18.5474 48.1515 15.4719 48.1515 11.678C48.1515 7.88413 45.1573 4.80859 41.4638 4.80859C37.7703 4.80859 34.7761 7.88413 34.7761 11.678C34.7761 15.4719 37.7703 18.5474 41.4638 18.5474ZM41.4638 16.1431C43.8646 16.1431 45.8108 14.144 45.8108 11.678C45.8108 9.21198 43.8646 7.21288 41.4638 7.21288C39.063 7.21288 37.1168 9.21198 37.1168 11.678C37.1168 14.144 39.063 16.1431 41.4638 16.1431Z" fill="url(#paint2_linear_1603_909)"/>
<path d="M48.2163 16.9333C48.2163 16.5557 48.3492 16.239 48.615 15.9833C48.8929 15.7275 49.1949 15.5996 49.5212 15.5996C49.8232 15.5996 50.1071 15.7275 50.3729 15.9833C50.6508 16.239 50.7898 16.5557 50.7898 16.9333C50.7898 17.3352 50.6508 17.658 50.3729 17.9016C50.1071 18.133 49.8232 18.2487 49.5212 18.2487C49.1949 18.2487 48.8929 18.133 48.615 17.9016C48.3492 17.658 48.2163 17.3352 48.2163 16.9333Z" fill="url(#paint3_linear_1603_909)"/>
<path d="M56.6591 4.80859C57.4927 4.80859 58.2358 4.91821 58.8882 5.13745C59.5406 5.3445 60.0843 5.649 60.5192 6.05093C60.9663 6.44068 61.3046 6.9157 61.5341 7.47597C61.7637 8.02406 61.8785 8.64523 61.8785 9.33947C61.8785 9.88756 61.7939 10.4357 61.6247 10.9837C61.4677 11.5318 61.2019 12.0312 60.8273 12.4819C60.4649 12.9325 59.9816 13.2979 59.3775 13.578C58.7734 13.846 58.0243 13.98 57.1303 13.98H55.4944C55.3569 13.98 55.2455 14.0923 55.2455 14.2309V18.0041C55.2455 18.1427 55.134 18.2551 54.9965 18.2551H52.8666C52.7291 18.2551 52.6177 18.1427 52.6177 18.0041V5.05955C52.6177 4.92095 52.7291 4.80859 52.8666 4.80859H56.6591ZM57.1121 11.4222C57.5108 11.4222 57.8431 11.3552 58.1089 11.2212C58.3747 11.0873 58.5801 10.9168 58.7251 10.7097C58.8821 10.5026 58.9909 10.2895 59.0513 10.0703C59.1238 9.83884 59.16 9.6257 59.16 9.43082C59.16 9.28466 59.1359 9.10197 59.0875 8.88273C59.0513 8.65132 58.9667 8.4199 58.8338 8.18848C58.7009 7.95707 58.4955 7.76219 58.2176 7.60385C57.9518 7.44552 57.5894 7.36635 57.1303 7.36635H55.4944C55.3569 7.36635 55.2455 7.47871 55.2455 7.61731V11.1713C55.2455 11.3099 55.3569 11.4222 55.4944 11.4222H57.1121ZM59.437 13.0697C59.5238 13.0677 59.6055 13.1115 59.6523 13.1852L62.6296 17.8687C62.7358 18.0357 62.6168 18.2551 62.42 18.2551H59.9459C59.8626 18.2551 59.7847 18.213 59.7386 18.143L56.6915 13.5188C56.583 13.3542 56.6971 13.1336 56.8931 13.129L59.437 13.0697Z" fill="url(#paint4_linear_1603_909)"/>
<path d="M65.8265 13.2857C65.8265 13.712 65.9534 14.12 66.2071 14.5098C66.4608 14.8995 66.7931 15.2162 67.2039 15.4598C67.6267 15.7034 68.0859 15.8252 68.5812 15.8252C69.1249 15.8252 69.6082 15.7034 70.031 15.4598C70.4539 15.2162 70.7862 14.8995 71.0278 14.5098C71.2815 14.12 71.4084 13.712 71.4084 13.2857V5.05955C71.4084 4.92095 71.5198 4.80859 71.6573 4.80859H73.751C73.8885 4.80859 74 4.92095 74 5.05955V13.3405C74 14.3271 73.7583 15.204 73.275 15.9714C72.7918 16.7265 72.1393 17.3233 71.3178 17.7618C70.4962 18.1881 69.584 18.4012 68.5812 18.4012C67.5905 18.4012 66.6844 18.1881 65.8628 17.7618C65.0533 17.3233 64.4069 16.7265 63.9236 15.9714C63.4404 15.204 63.1987 14.3271 63.1987 13.3405V5.05955C63.1987 4.92095 63.3102 4.80859 63.4477 4.80859H65.5776C65.7151 4.80859 65.8265 4.92095 65.8265 5.05955V13.2857Z" fill="url(#paint5_linear_1603_909)"/>
<path fill-rule="evenodd" clip-rule="evenodd" d="M16.385 18.5474C20.0785 18.5474 23.0727 15.4719 23.0727 11.678C23.0727 7.88413 20.0785 4.80859 16.385 4.80859C12.6915 4.80859 9.69727 7.88413 9.69727 11.678C9.69727 15.4719 12.6915 18.5474 16.385 18.5474ZM16.385 16.1431C18.7858 16.1431 20.732 14.144 20.732 11.678C20.732 9.21198 18.7858 7.21288 16.385 7.21288C13.9842 7.21288 12.038 9.21198 12.038 11.678C12.038 14.144 13.9842 16.1431 16.385 16.1431Z" fill="url(#paint6_linear_1603_909)"/>
<path fill-rule="evenodd" clip-rule="evenodd" d="M40.9623 9.46759C40.9623 9.37053 40.8715 9.30061 40.7839 9.33688C40.0105 9.65692 39.4575 10.5074 39.4575 11.5063C39.4575 12.5052 40.0105 13.3557 40.7839 13.6757C40.8715 13.712 40.9623 13.6421 40.9623 13.545C40.9623 13.4822 40.9228 13.427 40.8661 13.4034C40.1908 13.1225 39.7083 12.3792 39.7083 11.5063C39.7083 10.6335 40.1908 9.8901 40.8661 9.60919C40.9228 9.58561 40.9623 9.53042 40.9623 9.46759ZM41.9654 13.545C41.9654 13.4822 42.0048 13.427 42.0615 13.4034C42.7368 13.1225 43.2193 12.3792 43.2193 11.5063C43.2193 10.6335 42.7368 9.8901 42.0615 9.60919C42.0048 9.58561 41.9654 9.53042 41.9654 9.46759C41.9654 9.37053 42.0561 9.30061 42.1438 9.33688C42.9172 9.65692 43.4701 10.5074 43.4701 11.5063C43.4701 12.5052 42.9172 13.3557 42.1438 13.6757C42.0561 13.712 41.9654 13.6421 41.9654 13.545Z" fill="black"/>
<path fill-rule="evenodd" clip-rule="evenodd" d="M51.667 0.34347C51.5721 0.34347 51.4952 0.266581 51.4952 0.171735C51.4952 0.0768884 51.5721 0 51.667 0H52.8328C54.1255 0 55.1735 1.07644 55.1735 2.40429V3.61098C55.1735 3.70331 55.0986 3.77817 55.0063 3.77817C54.9139 3.77817 54.8391 3.70331 54.8391 3.61098V2.40429C54.8391 1.26613 53.9408 0.34347 52.8328 0.34347H51.667ZM51.4952 23.5277C51.4952 23.4328 51.5721 23.3559 51.667 23.3559H52.8328C53.9408 23.3559 54.8391 22.4333 54.8391 21.2951V20.0884C54.8391 19.9961 54.9139 19.9212 55.0063 19.9212C55.0986 19.9212 55.1735 19.9961 55.1735 20.0884V21.2951C55.1735 22.623 54.1255 23.6994 52.8328 23.6994H51.667C51.5721 23.6994 51.4952 23.6225 51.4952 23.5277ZM27.9211 19.9212C28.0134 19.9212 28.0883 19.9961 28.0883 20.0884V21.2951C28.0883 22.4333 28.9865 23.3559 30.0946 23.3559H31.2604C31.3553 23.3559 31.4321 23.4328 31.4321 23.5277C31.4321 23.6225 31.3553 23.6994 31.2604 23.6994H30.0946C28.8019 23.6994 27.7539 22.623 27.7539 21.2951V20.0884C27.7539 19.9961 27.8288 19.9212 27.9211 19.9212ZM31.4321 0.171735C31.4321 0.266581 31.3553 0.34347 31.2604 0.34347H30.0946C28.9865 0.34347 28.0883 1.26613 28.0883 2.40429V3.61098C28.0883 3.70331 28.0134 3.77817 27.9211 3.77817C27.8288 3.77817 27.7539 3.70331 27.7539 3.61098V2.40429C27.7539 1.07644 28.8019 0 30.0946 0H31.2604C31.3553 0 31.4321 0.0768884 31.4321 0.171735Z" fill="black"/>
<path fill-rule="evenodd" clip-rule="evenodd" d="M37.1168 2.64473H35.1105C35.0551 2.64473 35.0102 2.69086 35.0102 2.74777V4.12165C35.0102 4.17855 35.0551 4.22469 35.1105 4.22469H37.1168C37.1722 4.22469 37.2171 4.17855 37.2171 4.12165V2.74777C37.2171 2.69086 37.1722 2.64473 37.1168 2.64473ZM35.1105 2.4043C34.9258 2.4043 34.7761 2.55807 34.7761 2.74777V4.12165C34.7761 4.31134 34.9258 4.46512 35.1105 4.46512H37.1168C37.3015 4.46512 37.4512 4.31134 37.4512 4.12165V2.74777C37.4512 2.55807 37.3015 2.4043 37.1168 2.4043H35.1105Z" fill="black"/>
<path fill-rule="evenodd" clip-rule="evenodd" d="M37.1168 19.1311H35.1105C35.0551 19.1311 35.0102 19.1772 35.0102 19.2341V20.608C35.0102 20.6649 35.0551 20.711 35.1105 20.711H37.1168C37.1722 20.711 37.2171 20.6649 37.2171 20.608V19.2341C37.2171 19.1772 37.1722 19.1311 37.1168 19.1311ZM35.1105 18.8906C34.9258 18.8906 34.7761 19.0444 34.7761 19.2341V20.608C34.7761 20.7977 34.9258 20.9514 35.1105 20.9514H37.1168C37.3015 20.9514 37.4512 20.7977 37.4512 20.608V19.2341C37.4512 19.0444 37.3015 18.8906 37.1168 18.8906H35.1105Z" fill="black"/>
<path fill-rule="evenodd" clip-rule="evenodd" d="M47.8173 2.64473H45.8109C45.7555 2.64473 45.7106 2.69086 45.7106 2.74777V4.12165C45.7106 4.17855 45.7555 4.22469 45.8109 4.22469H47.8173C47.8727 4.22469 47.9176 4.17855 47.9176 4.12165V2.74777C47.9176 2.69086 47.8727 2.64473 47.8173 2.64473ZM45.8109 2.4043C45.6263 2.4043 45.4766 2.55807 45.4766 2.74777V4.12165C45.4766 4.31134 45.6263 4.46512 45.8109 4.46512H47.8173C48.0019 4.46512 48.1516 4.31134 48.1516 4.12165V2.74777C48.1516 2.55807 48.0019 2.4043 47.8173 2.4043H45.8109Z" fill="black"/>
<path fill-rule="evenodd" clip-rule="evenodd" d="M47.8173 19.1311H45.8109C45.7555 19.1311 45.7106 19.1772 45.7106 19.2341V20.608C45.7106 20.6649 45.7555 20.711 45.8109 20.711H47.8173C47.8727 20.711 47.9176 20.6649 47.9176 20.608V19.2341C47.9176 19.1772 47.8727 19.1311 47.8173 19.1311ZM45.8109 18.8906C45.6263 18.8906 45.4766 19.0444 45.4766 19.2341V20.608C45.4766 20.7977 45.6263 20.9514 45.8109 20.9514H47.8173C48.0019 20.9514 48.1516 20.7977 48.1516 20.608V19.2341C48.1516 19.0444 48.0019 18.8906 47.8173 18.8906H45.8109Z" fill="black"/>
<path fill-rule="evenodd" clip-rule="evenodd" d="M51.4955 10.8879H49.4892C49.4338 10.8879 49.3889 10.934 49.3889 10.9909V12.3648C49.3889 12.4217 49.4338 12.4679 49.4892 12.4679H51.4955C51.5509 12.4679 51.5958 12.4217 51.5958 12.3648V10.9909C51.5958 10.934 51.5509 10.8879 51.4955 10.8879ZM49.4892 10.6475C49.3045 10.6475 49.1548 10.8012 49.1548 10.9909V12.3648C49.1548 12.5545 49.3045 12.7083 49.4892 12.7083H51.4955C51.6802 12.7083 51.8299 12.5545 51.8299 12.3648V10.9909C51.8299 10.8012 51.6802 10.6475 51.4955 10.6475H49.4892Z" fill="black"/>
<path fill-rule="evenodd" clip-rule="evenodd" d="M33.4386 10.8879H31.4323C31.3769 10.8879 31.332 10.934 31.332 10.9909V12.3648C31.332 12.4217 31.3769 12.4679 31.4323 12.4679H33.4386C33.494 12.4679 33.5389 12.4217 33.5389 12.3648V10.9909C33.5389 10.934 33.494 10.8879 33.4386 10.8879ZM31.4323 10.6475C31.2476 10.6475 31.0979 10.8012 31.0979 10.9909V12.3648C31.0979 12.5545 31.2476 12.7083 31.4323 12.7083H33.4386C33.6233 12.7083 33.773 12.5545 33.773 12.3648V10.9909C33.773 10.8012 33.6233 10.6475 33.4386 10.6475H31.4323Z" fill="black"/>
<path fill-rule="evenodd" clip-rule="evenodd" d="M41.4637 22.1491C41.4637 22.0568 41.5386 21.9819 41.6309 21.9819C41.7232 21.9819 41.7981 22.0568 41.7981 22.1491V24.219C41.7981 24.3114 41.7232 24.3862 41.6309 24.3862C41.5386 24.3862 41.4637 24.3114 41.4637 24.219V22.1491ZM36.7823 22.1491C36.7823 22.0568 36.7075 21.9819 36.6151 21.9819C36.5228 21.9819 36.4479 22.0568 36.4479 22.1491V24.219C36.4479 24.3114 36.5228 24.3862 36.6151 24.3862C36.7075 24.3862 36.7823 24.3114 36.7823 24.219V22.1491ZM32.4353 22.8361C32.4353 22.7437 32.5102 22.6689 32.6025 22.6689C32.6948 22.6689 32.7697 22.7437 32.7697 22.8361V24.219C32.7697 24.3114 32.6948 24.3862 32.6025 24.3862C32.5102 24.3862 32.4353 24.3114 32.4353 24.219V22.8361ZM33.4385 22.8361C33.4385 22.7437 33.5133 22.6689 33.6056 22.6689C33.698 22.6689 33.7728 22.7437 33.7728 22.8361V24.219C33.7728 24.3114 33.698 24.3862 33.6056 24.3862C33.5133 24.3862 33.4385 24.3114 33.4385 24.219V22.8361ZM34.776 22.8361C34.776 22.7437 34.7011 22.6689 34.6088 22.6689C34.5165 22.6689 34.4416 22.7437 34.4416 22.8361V24.219C34.4416 24.3114 34.5165 24.3862 34.6088 24.3862C34.7011 24.3862 34.776 24.3114 34.776 24.219V22.8361ZM35.4448 22.8361C35.4448 22.7437 35.5196 22.6689 35.612 22.6689C35.7043 22.6689 35.7792 22.7437 35.7792 22.8361V24.219C35.7792 24.3114 35.7043 24.3862 35.612 24.3862C35.5196 24.3862 35.4448 24.3114 35.4448 24.219V22.8361ZM37.4511 22.8361C37.4511 22.7437 37.5259 22.6689 37.6183 22.6689C37.7106 22.6689 37.7855 22.7437 37.7855 22.8361V24.219C37.7855 24.3114 37.7106 24.3862 37.6183 24.3862C37.5259 24.3862 37.4511 24.3114 37.4511 24.219V22.8361ZM38.7886 22.8361C38.7886 22.7437 38.7138 22.6689 38.6214 22.6689C38.5291 22.6689 38.4542 22.7437 38.4542 22.8361V24.219C38.4542 24.3114 38.5291 24.3862 38.6214 24.3862C38.7138 24.3862 38.7886 24.3114 38.7886 24.219V22.8361ZM39.4574 22.8361C39.4574 22.7437 39.5322 22.6689 39.6246 22.6689C39.7169 22.6689 39.7918 22.7437 39.7918 22.8361V24.219C39.7918 24.3114 39.7169 24.3862 39.6246 24.3862C39.5322 24.3862 39.4574 24.3114 39.4574 24.219V22.8361ZM40.7949 22.8361C40.7949 22.7437 40.7201 22.6689 40.6277 22.6689C40.5354 22.6689 40.4605 22.7437 40.4605 22.8361V24.219C40.4605 24.3114 40.5354 24.3862 40.6277 24.3862C40.7201 24.3862 40.7949 24.3114 40.7949 24.219V22.8361ZM42.8012 22.8361C42.8012 22.7437 42.7264 22.6689 42.634 22.6689C42.5417 22.6689 42.4669 22.7437 42.4669 22.8361V24.219C42.4669 24.3114 42.5417 24.3862 42.634 24.3862C42.7264 24.3862 42.8012 24.3114 42.8012 24.219V22.8361ZM43.47 22.8361C43.47 22.7437 43.5449 22.6689 43.6372 22.6689C43.7295 22.6689 43.8044 22.7437 43.8044 22.8361V24.219C43.8044 24.3114 43.7295 24.3862 43.6372 24.3862C43.5449 24.3862 43.47 24.3114 43.47 24.219V22.8361ZM44.8075 22.8361C44.8075 22.7437 44.7327 22.6689 44.6404 22.6689C44.548 22.6689 44.4732 22.7437 44.4732 22.8361V24.219C44.4732 24.3114 44.548 24.3862 44.6404 24.3862C44.7327 24.3862 44.8075 24.3114 44.8075 24.219V22.8361ZM45.4763 22.8361C45.4763 22.7437 45.5512 22.6689 45.6435 22.6689C45.7358 22.6689 45.8107 22.7437 45.8107 22.8361V24.219C45.8107 24.3114 45.7358 24.3862 45.6435 24.3862C45.5512 24.3862 45.4763 24.3114 45.4763 24.219V22.8361ZM46.8139 22.1491C46.8139 22.0568 46.739 21.9819 46.6467 21.9819C46.5543 21.9819 46.4795 22.0568 46.4795 22.1491V24.219C46.4795 24.3114 46.5543 24.3862 46.6467 24.3862C46.739 24.3862 46.8139 24.3114 46.8139 24.219V22.1491ZM47.4826 22.8361C47.4826 22.7437 47.5575 22.6689 47.6498 22.6689C47.7422 22.6689 47.817 22.7437 47.817 22.8361V24.219C47.817 24.3114 47.7422 24.3862 47.6498 24.3862C47.5575 24.3862 47.4826 24.3114 47.4826 24.219V22.8361ZM48.8202 22.8361C48.8202 22.7437 48.7453 22.6689 48.653 22.6689C48.5606 22.6689 48.4858 22.7437 48.4858 22.8361V24.219C48.4858 24.3114 48.5606 24.3862 48.653 24.3862C48.7453 24.3862 48.8202 24.3114 48.8202 24.219V22.8361ZM49.4889 22.8361C49.4889 22.7437 49.5638 22.6689 49.6561 22.6689C49.7485 22.6689 49.8233 22.7437 49.8233 22.8361V24.219C49.8233 24.3114 49.7485 24.3862 49.6561 24.3862C49.5638 24.3862 49.4889 24.3114 49.4889 24.219V22.8361ZM50.8265 22.8361C50.8265 22.7437 50.7516 22.6689 50.6593 22.6689C50.5669 22.6689 50.4921 22.7437 50.4921 22.8361V24.219C50.4921 24.3114 50.5669 24.3862 50.6593 24.3862C50.7516 24.3862 50.8265 24.3114 50.8265 24.219V22.8361Z" fill="black"/>
<defs>
<linearGradient id="paint0_linear_1603_909" x1="28.5995" y1="4.80859" x2="28.5995" y2="18.2551" gradientUnits="userSpaceOnUse">
<stop stop-color="#4270FB"/>
<stop offset="1" stop-color="#3452AB"/>
</linearGradient>
<linearGradient id="paint1_linear_1603_909" x1="4.16826" y1="4.80859" x2="4.16826" y2="18.2551" gradientUnits="userSpaceOnUse">
<stop stop-color="#4270FB"/>
<stop offset="1" stop-color="#3452AB"/>
</linearGradient>
<linearGradient id="paint2_linear_1603_909" x1="41.4638" y1="4.80859" x2="41.4638" y2="18.5474" gradientUnits="userSpaceOnUse">
<stop stop-color="#4270FB"/>
<stop offset="1" stop-color="#3452AB"/>
</linearGradient>
<linearGradient id="paint3_linear_1603_909" x1="49.503" y1="15.5996" x2="49.503" y2="18.2487" gradientUnits="userSpaceOnUse">
<stop stop-color="#4270FB"/>
<stop offset="1" stop-color="#3452AB"/>
</linearGradient>
<linearGradient id="paint4_linear_1603_909" x1="57.6435" y1="4.80859" x2="57.6435" y2="18.2551" gradientUnits="userSpaceOnUse">
<stop stop-color="#4270FB"/>
<stop offset="1" stop-color="#3452AB"/>
</linearGradient>
<linearGradient id="paint5_linear_1603_909" x1="68.5993" y1="4.80859" x2="68.5993" y2="18.4012" gradientUnits="userSpaceOnUse">
<stop stop-color="#4270FB"/>
<stop offset="1" stop-color="#3452AB"/>
</linearGradient>
<linearGradient id="paint6_linear_1603_909" x1="16.385" y1="4.80859" x2="16.385" y2="18.5474" gradientUnits="userSpaceOnUse">
<stop stop-color="#4270FB"/>
<stop offset="1" stop-color="#3452AB"/>
</linearGradient>
</defs>
</svg>
