<svg width="159" height="51" viewBox="0 0 159 51" fill="none" xmlns="http://www.w3.org/2000/svg">
<g clip-path="url(#clip0_1603_345)">
<path d="M50.7238 10.5812C50.7238 10.2914 50.9632 10.0564 51.2586 10.0564H71.6425C71.9379 10.0564 72.1774 10.2914 72.1774 10.5812V14.8807C72.1774 15.1705 71.9379 15.4055 71.6425 15.4055H64.6723C64.3769 15.4055 64.1374 15.6405 64.1374 15.9303V37.6526C64.1374 37.9425 63.8979 38.1775 63.6025 38.1775H59.026C58.7306 38.1775 58.4911 37.9425 58.4911 37.6526V15.9303C58.4911 15.6405 58.2517 15.4055 57.9563 15.4055H51.2586C50.9632 15.4055 50.7238 15.1705 50.7238 14.8807V10.5812Z" fill="url(#paint0_linear_1603_345)"/>
<path d="M0 10.5812C0 10.2914 0.239476 10.0564 0.534885 10.0564H17.3774C17.6728 10.0564 17.9122 10.2914 17.9122 10.5812V14.8807C17.9122 15.1705 17.6728 15.4055 17.3774 15.4055H6.18114C5.88573 15.4055 5.64625 15.6405 5.64625 15.9303V21.2614C5.64625 21.5513 5.88573 21.7862 6.18114 21.7862H15.7419C16.0373 21.7862 16.2768 22.0212 16.2768 22.3111V26.6105C16.2768 26.9004 16.0373 27.1354 15.7419 27.1354H6.18114C5.88573 27.1354 5.64625 27.3703 5.64625 27.6602V37.6526C5.64625 37.9425 5.40678 38.1775 5.11137 38.1775H0.534886C0.239477 38.1775 0 37.9425 0 37.6526V10.5812Z" fill="url(#paint1_linear_1603_345)"/>
<path fill-rule="evenodd" clip-rule="evenodd" d="M89.091 38.7888C97.0271 38.7888 103.461 32.3568 103.461 24.4226C103.461 16.4884 97.0271 10.0564 89.091 10.0564C81.1549 10.0564 74.7215 16.4884 74.7215 24.4226C74.7215 32.3568 81.1549 38.7888 89.091 38.7888ZM89.091 33.7606C94.2495 33.7606 98.4312 29.5798 98.4312 24.4226C98.4312 19.2653 94.2495 15.0846 89.091 15.0846C83.9326 15.0846 79.7508 19.2653 79.7508 24.4226C79.7508 29.5798 83.9326 33.7606 89.091 33.7606Z" fill="url(#paint2_linear_1603_345)"/>
<path d="M103.6 35.4134C103.6 34.6238 103.886 33.9615 104.457 33.4266C105.054 32.8917 105.703 32.6243 106.404 32.6243C107.053 32.6243 107.663 32.8917 108.234 33.4266C108.831 33.9615 109.13 34.6238 109.13 35.4134C109.13 36.254 108.831 36.929 108.234 37.4385C107.663 37.9224 107.053 38.1644 106.404 38.1644C105.703 38.1644 105.054 37.9224 104.457 37.4385C103.886 36.929 103.6 36.254 103.6 35.4134Z" fill="url(#paint3_linear_1603_345)"/>
<path d="M121.74 10.0564C123.531 10.0564 125.128 10.2856 126.53 10.7441C127.932 11.1772 129.1 11.814 130.034 12.6545C130.995 13.4696 131.722 14.463 132.215 15.6348C132.708 16.781 132.955 18.0801 132.955 19.532C132.955 20.6782 132.773 21.8244 132.41 22.9707C132.072 24.1169 131.501 25.1613 130.696 26.1037C129.918 27.0462 128.879 27.8104 127.581 28.3962C126.283 28.9566 124.674 29.2368 122.753 29.2368H119.238C118.942 29.2368 118.703 29.4718 118.703 29.7616V37.6526C118.703 37.9425 118.463 38.1775 118.168 38.1775H113.592C113.296 38.1775 113.057 37.9425 113.057 37.6526V10.5812C113.057 10.2914 113.296 10.0564 113.592 10.0564H121.74ZM122.714 23.8877C123.57 23.8877 124.284 23.7476 124.855 23.4674C125.426 23.1872 125.868 22.8306 126.179 22.3976C126.517 21.9645 126.75 21.5188 126.88 21.0603C127.036 20.5763 127.114 20.1306 127.114 19.723C127.114 19.4173 127.062 19.0353 126.958 18.5768C126.88 18.0928 126.699 17.6088 126.413 17.1249C126.127 16.6409 125.686 16.2334 125.089 15.9022C124.518 15.5711 123.739 15.4055 122.753 15.4055H119.238C118.942 15.4055 118.703 15.6405 118.703 15.9303V23.3628C118.703 23.6527 118.942 23.8877 119.238 23.8877H122.714ZM127.709 27.3332C127.896 27.329 128.071 27.4205 128.172 27.5747L134.569 37.3694C134.797 37.7188 134.541 38.1775 134.118 38.1775H128.803C128.623 38.1775 128.456 38.0895 128.357 37.943L121.81 28.2723C121.577 27.928 121.822 27.4668 122.243 27.4572L127.709 27.3332Z" fill="url(#paint4_linear_1603_345)"/>
<path d="M141.438 27.7849C141.438 28.6764 141.711 29.5297 142.256 30.3448C142.801 31.1599 143.515 31.8222 144.398 32.3316C145.306 32.8411 146.293 33.0958 147.357 33.0958C148.525 33.0958 149.564 32.8411 150.472 32.3316C151.381 31.8222 152.095 31.1599 152.614 30.3448C153.159 29.5297 153.432 28.6764 153.432 27.7849V10.5812C153.432 10.2914 153.671 10.0564 153.967 10.0564H158.465C158.761 10.0564 159 10.2914 159 10.5812V27.8995C159 29.9627 158.481 31.7967 157.442 33.4015C156.404 34.9807 155.002 36.2289 153.237 37.1458C151.472 38.0374 149.512 38.4831 147.357 38.4831C145.228 38.4831 143.281 38.0374 141.516 37.1458C139.777 36.2289 138.388 34.9807 137.35 33.4015C136.311 31.7967 135.792 29.9627 135.792 27.8995V10.5812C135.792 10.2914 136.031 10.0564 136.327 10.0564H140.903C141.199 10.0564 141.438 10.2914 141.438 10.5812V27.7849Z" fill="url(#paint5_linear_1603_345)"/>
<path fill-rule="evenodd" clip-rule="evenodd" d="M35.2053 38.7888C43.1414 38.7888 49.5749 32.3568 49.5749 24.4226C49.5749 16.4884 43.1414 10.0564 35.2053 10.0564C27.2693 10.0564 20.8358 16.4884 20.8358 24.4226C20.8358 32.3568 27.2693 38.7888 35.2053 38.7888ZM35.2053 33.7606C40.3638 33.7606 44.5455 29.5798 44.5455 24.4226C44.5455 19.2653 40.3638 15.0846 35.2053 15.0846C30.0469 15.0846 25.8651 19.2653 25.8651 24.4226C25.8651 29.5798 30.0469 33.7606 35.2053 33.7606Z" fill="url(#paint6_linear_1603_345)"/>
<path fill-rule="evenodd" clip-rule="evenodd" d="M88.0133 19.7998C88.0133 19.5968 87.8184 19.4506 87.63 19.5264C85.9683 20.1958 84.7802 21.9744 84.7802 24.0634C84.7802 26.1524 85.9683 27.9311 87.63 28.6004C87.8184 28.6763 88.0133 28.5301 88.0133 28.3271C88.0133 28.1957 87.9286 28.0803 87.8068 28.0309C86.3558 27.4435 85.319 25.8889 85.319 24.0634C85.319 22.238 86.3558 20.6834 87.8068 20.0959C87.9286 20.0466 88.0133 19.9312 88.0133 19.7998ZM90.1687 28.3271C90.1687 28.1957 90.2534 28.0803 90.3752 28.0309C91.8262 27.4435 92.863 25.8889 92.863 24.0634C92.863 22.238 91.8262 20.6834 90.3752 20.0959C90.2534 20.0466 90.1687 19.9312 90.1687 19.7998C90.1687 19.5968 90.3636 19.4506 90.552 19.5264C92.2137 20.1958 93.4019 21.9744 93.4019 24.0634C93.4019 26.1524 92.2137 27.9311 90.552 28.6004C90.3636 28.6763 90.1687 28.5301 90.1687 28.3271Z" fill="black"/>
<path fill-rule="evenodd" clip-rule="evenodd" d="M111.004 0.71831C110.806 0.71831 110.645 0.557511 110.645 0.359155C110.645 0.160799 110.806 0 111.004 0H113.519C116.297 0 118.549 2.25119 118.549 5.02817V7.54217C118.549 7.74057 118.388 7.90141 118.189 7.90141C117.991 7.90141 117.83 7.74057 117.83 7.54217V5.02817C117.83 2.6479 115.9 0.71831 113.519 0.71831H111.004ZM110.645 49.2042C110.645 49.0059 110.806 48.8451 111.004 48.8451H113.519C115.9 48.8451 117.83 46.9155 117.83 44.5352V42.0212C117.83 41.8228 117.991 41.662 118.189 41.662C118.388 41.662 118.549 41.8228 118.549 42.0212V44.5352C118.549 47.3122 116.297 49.5634 113.519 49.5634H111.004C110.806 49.5634 110.645 49.4026 110.645 49.2042ZM59.9927 41.662C60.1911 41.662 60.352 41.8228 60.352 42.0212V44.5352C60.352 46.9155 62.282 48.8451 64.6628 48.8451H67.1776C67.3759 48.8451 67.5367 49.0059 67.5367 49.2042C67.5367 49.4026 67.3759 49.5634 67.1776 49.5634H64.6628C61.8852 49.5634 59.6335 47.3122 59.6335 44.5352V42.0212C59.6335 41.8228 59.7943 41.662 59.9927 41.662ZM67.5367 0.359155C67.5367 0.557511 67.3759 0.71831 67.1776 0.71831H64.6628C62.282 0.71831 60.352 2.6479 60.352 5.02817V7.54217C60.352 7.74057 60.1911 7.90141 59.9927 7.90141C59.7943 7.90141 59.6335 7.74057 59.6335 7.54217V5.02817C59.6335 2.25119 61.8852 0 64.6628 0H67.1776C67.3759 0 67.5367 0.160799 67.5367 0.359155Z" fill="black"/>
<path fill-rule="evenodd" clip-rule="evenodd" d="M79.7508 5.53089H75.4399C75.3209 5.53089 75.2244 5.62737 75.2244 5.74639V8.61962C75.2244 8.73864 75.3209 8.83512 75.4399 8.83512H79.7508C79.8698 8.83512 79.9663 8.73864 79.9663 8.61962V5.74639C79.9663 5.62737 79.8698 5.53089 79.7508 5.53089ZM75.4399 5.02808C75.0431 5.02808 74.7214 5.34967 74.7214 5.74639V8.61962C74.7214 9.01634 75.0431 9.33793 75.4399 9.33793H79.7508C80.1476 9.33793 80.4692 9.01634 80.4692 8.61962V5.74639C80.4692 5.34967 80.1476 5.02808 79.7508 5.02808H75.4399Z" fill="black"/>
<path fill-rule="evenodd" clip-rule="evenodd" d="M79.7508 40.0097H75.4399C75.3209 40.0097 75.2244 40.1061 75.2244 40.2251V43.0984C75.2244 43.2174 75.3209 43.3139 75.4399 43.3139H79.7508C79.8698 43.3139 79.9663 43.2174 79.9663 43.0984V40.2251C79.9663 40.1061 79.8698 40.0097 79.7508 40.0097ZM75.4399 39.5068C75.0431 39.5068 74.7214 39.8284 74.7214 40.2251V43.0984C74.7214 43.4951 75.0431 43.8167 75.4399 43.8167H79.7508C80.1476 43.8167 80.4692 43.4951 80.4692 43.0984V40.2251C80.4692 39.8284 80.1476 39.5068 79.7508 39.5068H75.4399Z" fill="black"/>
<path fill-rule="evenodd" clip-rule="evenodd" d="M102.742 5.53089H98.4312C98.3121 5.53089 98.2156 5.62737 98.2156 5.74639V8.61962C98.2156 8.73864 98.3121 8.83512 98.4312 8.83512H102.742C102.861 8.83512 102.958 8.73864 102.958 8.61962V5.74639C102.958 5.62737 102.861 5.53089 102.742 5.53089ZM98.4312 5.02808C98.0344 5.02808 97.7127 5.34967 97.7127 5.74639V8.61962C97.7127 9.01634 98.0344 9.33793 98.4312 9.33793H102.742C103.139 9.33793 103.461 9.01634 103.461 8.61962V5.74639C103.461 5.34967 103.139 5.02808 102.742 5.02808H98.4312Z" fill="black"/>
<path fill-rule="evenodd" clip-rule="evenodd" d="M102.742 40.0097H98.4312C98.3121 40.0097 98.2156 40.1061 98.2156 40.2251V43.0984C98.2156 43.2174 98.3121 43.3139 98.4312 43.3139H102.742C102.861 43.3139 102.958 43.2174 102.958 43.0984V40.2251C102.958 40.1061 102.861 40.0097 102.742 40.0097ZM98.4312 39.5068C98.0344 39.5068 97.7127 39.8284 97.7127 40.2251V43.0984C97.7127 43.4951 98.0344 43.8167 98.4312 43.8167H102.742C103.139 43.8167 103.461 43.4951 103.461 43.0984V40.2251C103.461 39.8284 103.139 39.5068 102.742 39.5068H98.4312Z" fill="black"/>
<path fill-rule="evenodd" clip-rule="evenodd" d="M110.645 22.7704H106.334C106.215 22.7704 106.119 22.8669 106.119 22.9859V25.8591C106.119 25.9781 106.215 26.0746 106.334 26.0746H110.645C110.764 26.0746 110.861 25.9781 110.861 25.8591V22.9859C110.861 22.8669 110.764 22.7704 110.645 22.7704ZM106.334 22.2676C105.938 22.2676 105.616 22.5892 105.616 22.9859V25.8591C105.616 26.2558 105.938 26.5774 106.334 26.5774H110.645C111.042 26.5774 111.364 26.2558 111.364 25.8591V22.9859C111.364 22.5892 111.042 22.2676 110.645 22.2676H106.334Z" fill="black"/>
<path fill-rule="evenodd" clip-rule="evenodd" d="M71.8476 22.7704H67.5367C67.4177 22.7704 67.3212 22.8669 67.3212 22.9859V25.8591C67.3212 25.9781 67.4177 26.0746 67.5367 26.0746H71.8476C71.9666 26.0746 72.0631 25.9781 72.0631 25.8591V22.9859C72.0631 22.8669 71.9666 22.7704 71.8476 22.7704ZM67.5367 22.2676C67.1399 22.2676 66.8182 22.5892 66.8182 22.9859V25.8591C66.8182 26.2558 67.1399 26.5774 67.5367 26.5774H71.8476C72.2444 26.5774 72.566 26.2558 72.566 25.8591V22.9859C72.566 22.5892 72.2444 22.2676 71.8476 22.2676H67.5367Z" fill="black"/>
<path fill-rule="evenodd" clip-rule="evenodd" d="M89.091 46.3312C89.091 46.1328 89.2518 45.9719 89.4502 45.9719C89.6486 45.9719 89.8095 46.1328 89.8095 46.3312V50.6409C89.8095 50.8393 89.6486 51.0001 89.4502 51.0001C89.2518 51.0001 89.091 50.8393 89.091 50.6409V46.3312ZM79.0323 46.3312C79.0323 46.1328 78.8715 45.9719 78.6731 45.9719C78.4747 45.9719 78.3139 46.1328 78.3139 46.3312V50.6409C78.3139 50.8393 78.4747 51.0001 78.6731 51.0001C78.8715 51.0001 79.0323 50.8393 79.0323 50.6409V46.3312ZM69.6921 47.7678C69.6921 47.5694 69.853 47.4086 70.0514 47.4086C70.2498 47.4086 70.4106 47.5694 70.4106 47.7678V50.6409C70.4106 50.8393 70.2498 51.0001 70.0514 51.0001C69.853 51.0001 69.6921 50.8393 69.6921 50.6409V47.7678ZM71.8476 47.7678C71.8476 47.5694 72.0084 47.4086 72.2068 47.4086C72.4052 47.4086 72.566 47.5694 72.566 47.7678V50.6409C72.566 50.8393 72.4052 51.0001 72.2068 51.0001C72.0084 51.0001 71.8476 50.8393 71.8476 50.6409V47.7678ZM74.7215 47.7678C74.7215 47.5694 74.5606 47.4086 74.3622 47.4086C74.1638 47.4086 74.003 47.5694 74.003 47.7678V50.6409C74.003 50.8393 74.1638 51.0001 74.3622 51.0001C74.5606 51.0001 74.7215 50.8393 74.7215 50.6409V47.7678ZM76.1584 47.7678C76.1584 47.5694 76.3193 47.4086 76.5177 47.4086C76.7161 47.4086 76.8769 47.5694 76.8769 47.7678V50.6409C76.8769 50.8393 76.7161 51.0001 76.5177 51.0001C76.3193 51.0001 76.1584 50.8393 76.1584 50.6409V47.7678ZM80.4693 47.7678C80.4693 47.5694 80.6301 47.4085 80.8285 47.4085C81.0269 47.4085 81.1878 47.5694 81.1878 47.7678V50.6409C81.1878 50.8393 81.0269 51.0001 80.8285 51.0001C80.6301 51.0001 80.4693 50.8393 80.4693 50.6409V47.7678ZM83.3432 47.7678C83.3432 47.5694 83.1824 47.4085 82.984 47.4085C82.7856 47.4085 82.6247 47.5694 82.6247 47.7678V50.6409C82.6247 50.8393 82.7856 51.0001 82.984 51.0001C83.1824 51.0001 83.3432 50.8393 83.3432 50.6409V47.7678ZM84.7801 47.7678C84.7801 47.5694 84.941 47.4085 85.1394 47.4085C85.3378 47.4085 85.4986 47.5694 85.4986 47.7678V50.6409C85.4986 50.8393 85.3378 51.0001 85.1394 51.0001C84.941 51.0001 84.7801 50.8393 84.7801 50.6409V47.7678ZM87.6541 47.7678C87.6541 47.5694 87.4932 47.4085 87.2948 47.4085C87.0964 47.4085 86.9356 47.5694 86.9356 47.7678V50.6409C86.9356 50.8393 87.0964 51.0001 87.2948 51.0001C87.4932 51.0001 87.6541 50.8393 87.6541 50.6409V47.7678ZM91.9649 47.7678C91.9649 47.5694 91.8041 47.4085 91.6057 47.4085C91.4072 47.4085 91.2464 47.5694 91.2464 47.7678V50.6409C91.2464 50.8393 91.4072 51.0001 91.6057 51.0001C91.8041 51.0001 91.9649 50.8393 91.9649 50.6409V47.7678ZM93.4018 47.7678C93.4018 47.5694 93.5627 47.4085 93.7611 47.4085C93.9595 47.4085 94.1203 47.5694 94.1203 47.7678V50.6409C94.1203 50.8393 93.9595 51.0001 93.7611 51.0001C93.5627 51.0001 93.4018 50.8393 93.4018 50.6409V47.7678ZM96.2757 47.7678C96.2757 47.5694 96.1149 47.4085 95.9165 47.4085C95.7181 47.4085 95.5573 47.5694 95.5573 47.7678V50.6409C95.5573 50.8393 95.7181 51.0001 95.9165 51.0001C96.1149 51.0001 96.2757 50.8393 96.2757 50.6409V47.7678ZM97.7127 47.7678C97.7127 47.5694 97.8735 47.4085 98.0719 47.4085C98.2703 47.4085 98.4312 47.5694 98.4312 47.7678V50.6409C98.4312 50.8393 98.2703 51.0001 98.0719 51.0001C97.8735 51.0001 97.7127 50.8393 97.7127 50.6409V47.7678ZM100.587 46.3312C100.587 46.1328 100.426 45.9719 100.227 45.9719C100.029 45.9719 99.8681 46.1328 99.8681 46.3312V50.6409C99.8681 50.8393 100.029 51.0001 100.227 51.0001C100.426 51.0001 100.587 50.8393 100.587 50.6409V46.3312ZM102.024 47.7678C102.024 47.5694 102.184 47.4086 102.383 47.4086C102.581 47.4086 102.742 47.5694 102.742 47.7678V50.6409C102.742 50.8393 102.581 51.0001 102.383 51.0001C102.184 51.0001 102.024 50.8393 102.024 50.6409V47.7678ZM104.897 47.7678C104.897 47.5694 104.737 47.4086 104.538 47.4086C104.34 47.4086 104.179 47.5694 104.179 47.7678V50.6409C104.179 50.8393 104.34 51.0001 104.538 51.0001C104.737 51.0001 104.897 50.8393 104.897 50.6409V47.7678ZM106.334 47.7678C106.334 47.5694 106.495 47.4086 106.694 47.4086C106.892 47.4086 107.053 47.5694 107.053 47.7678V50.6409C107.053 50.8393 106.892 51.0001 106.694 51.0001C106.495 51.0001 106.334 50.8393 106.334 50.6409V47.7678ZM109.208 47.7678C109.208 47.5694 109.047 47.4086 108.849 47.4086C108.651 47.4086 108.49 47.5694 108.49 47.7678V50.6409C108.49 50.8393 108.651 51.0001 108.849 51.0001C109.047 51.0001 109.208 50.8393 109.208 50.6409V47.7678Z" fill="black"/>
</g>
<defs>
<linearGradient id="paint0_linear_1603_345" x1="61.4506" y1="10.0564" x2="61.4506" y2="38.1775" gradientUnits="userSpaceOnUse">
<stop stop-color="#4270FB"/>
<stop offset="1" stop-color="#3452AB"/>
</linearGradient>
<linearGradient id="paint1_linear_1603_345" x1="8.95612" y1="10.0564" x2="8.95612" y2="38.1775" gradientUnits="userSpaceOnUse">
<stop stop-color="#4270FB"/>
<stop offset="1" stop-color="#3452AB"/>
</linearGradient>
<linearGradient id="paint2_linear_1603_345" x1="89.091" y1="10.0564" x2="89.091" y2="38.7888" gradientUnits="userSpaceOnUse">
<stop stop-color="#4270FB"/>
<stop offset="1" stop-color="#3452AB"/>
</linearGradient>
<linearGradient id="paint3_linear_1603_345" x1="106.365" y1="32.6243" x2="106.365" y2="38.1644" gradientUnits="userSpaceOnUse">
<stop stop-color="#4270FB"/>
<stop offset="1" stop-color="#3452AB"/>
</linearGradient>
<linearGradient id="paint4_linear_1603_345" x1="123.855" y1="10.0564" x2="123.855" y2="38.1775" gradientUnits="userSpaceOnUse">
<stop stop-color="#4270FB"/>
<stop offset="1" stop-color="#3452AB"/>
</linearGradient>
<linearGradient id="paint5_linear_1603_345" x1="147.396" y1="10.0564" x2="147.396" y2="38.4831" gradientUnits="userSpaceOnUse">
<stop stop-color="#4270FB"/>
<stop offset="1" stop-color="#3452AB"/>
</linearGradient>
<linearGradient id="paint6_linear_1603_345" x1="35.2053" y1="10.0564" x2="35.2053" y2="38.7888" gradientUnits="userSpaceOnUse">
<stop stop-color="#4270FB"/>
<stop offset="1" stop-color="#3452AB"/>
</linearGradient>
<clipPath id="clip0_1603_345">
<rect width="159" height="51" fill="white"/>
</clipPath>
</defs>
</svg>
