<svg width="30" height="30" viewBox="0 0 30 30" fill="none" xmlns="http://www.w3.org/2000/svg">
<path d="M7.93401 17.2917C8.04809 17.0941 8.33335 17.0941 8.44753 17.2917L14.9919 28.6211C15.1057 28.818 14.9645 29.0657 14.737 29.066C14.7301 29.066 14.7231 29.066 14.7161 29.066C10.5065 29.066 6.71623 27.2713 4.06833 24.4053C3.98001 24.3097 3.96402 24.1679 4.02903 24.0553L7.93401 17.2917ZM13.9463 21.3614L27.0143 21.3735C27.2419 21.3737 27.3854 21.6203 27.2715 21.8173C25.2794 25.2618 21.9107 27.8103 17.9175 28.7106C17.7905 28.7393 17.6595 28.6823 17.5944 28.5697L13.6893 21.8058C13.5751 21.6079 13.7179 21.3611 13.9463 21.3614ZM2.15502 7.33661C4.14878 3.88282 7.52606 1.32822 11.5295 0.430015C11.6565 0.40151 11.7873 0.458278 11.8524 0.571088L15.7596 7.33869C15.8738 7.53653 15.7311 7.78353 15.5028 7.78346L2.41248 7.78104C2.18493 7.78099 2.04121 7.53373 2.15502 7.33661ZM1.15573 10.0594H8.96901C9.1973 10.0594 9.33998 10.3066 9.22577 10.5042L2.68182 21.8307C2.56744 22.0285 2.28235 22.0276 2.16775 21.8299C0.930687 19.6956 0.222279 17.2167 0.222279 14.5722C0.222279 13.0735 0.449905 11.6281 0.872221 10.2683C0.910749 10.1441 1.02566 10.0594 1.15573 10.0594ZM14.711 0.0783691C14.7127 0.0783691 14.7144 0.0783691 14.7162 0.0783691C18.9251 0.0783691 22.7148 1.87259 25.3627 4.73769C25.451 4.83311 25.467 4.97515 25.4019 5.08782L21.4976 11.8503C21.3834 12.0482 21.0979 12.0479 20.9839 11.8501L14.4559 0.52292C14.3425 0.326045 14.4836 0.0784175 14.711 0.0783691ZM28.2734 19.0952H20.4573C20.229 19.0952 20.0864 18.8481 20.2006 18.6504L26.7495 7.31202C26.8638 7.11394 27.1489 7.1149 27.2635 7.31275C28.5012 9.44743 29.21 11.927 29.21 14.5722C29.21 16.0747 28.9812 17.5237 28.5568 18.8865C28.5182 19.0107 28.4034 19.0952 28.2734 19.0952Z" fill="url(#paint0_linear_1603_431)"/>
<defs>
<linearGradient id="paint0_linear_1603_431" x1="5.05356" y1="3.70183" x2="24.3787" y2="27.2543" gradientUnits="userSpaceOnUse">
<stop stop-color="#FF6B00"/>
<stop offset="1" stop-color="#FFE600"/>
</linearGradient>
</defs>
</svg>
