<svg width="16" height="16" viewBox="0 0 16 16" fill="none" xmlns="http://www.w3.org/2000/svg">
<path fill-rule="evenodd" clip-rule="evenodd" d="M5.53333 3.66675C4.11839 3.66675 3 5.04728 3 6.50675C3 7.17973 3.26505 7.88136 3.74974 8.59501C4.2335 9.30728 4.89883 9.97555 5.59976 10.559C6.29681 11.1392 7.00158 11.6129 7.53891 11.9413C7.71449 12.0485 7.87033 12.1392 8 12.2119C8.12967 12.1392 8.28551 12.0485 8.46109 11.9413C8.99842 11.6129 9.70319 11.1392 10.4002 10.559C11.1012 9.97555 11.7665 9.30728 12.2503 8.59501C12.735 7.88136 13 7.17973 13 6.50675C13 5.04728 11.8816 3.66675 10.4667 3.66675C9.62931 3.66675 9.091 4.07291 8.75725 4.45987C8.56729 4.68012 8.29085 4.80675 8 4.80675C7.70915 4.80675 7.43271 4.68012 7.24275 4.45987C6.909 4.07291 6.3707 3.66675 5.53333 3.66675ZM1 6.50675C1 4.25955 2.72161 1.66675 5.53333 1.66675C6.58466 1.66675 7.39927 2.01995 8 2.45581C8.60073 2.01995 9.41535 1.66675 10.4667 1.66675C13.2784 1.66675 15 4.25955 15 6.50675C15 7.71044 14.5284 8.80047 13.9047 9.7187C13.2802 10.6383 12.4655 11.4421 11.6798 12.0962C10.8901 12.7534 10.1016 13.2827 9.50391 13.6479C9.20439 13.8309 8.94846 13.9754 8.75894 14.0764C8.66497 14.1265 8.58245 14.1686 8.51612 14.2003C8.48429 14.2155 8.4472 14.2326 8.41011 14.248C8.3928 14.2552 8.36295 14.2673 8.32714 14.2793C8.30959 14.2852 8.27888 14.295 8.24041 14.3044L8.23962 14.3046C8.21525 14.3105 8.12147 14.3334 8 14.3334C7.87853 14.3334 7.78475 14.3105 7.76038 14.3046L7.75959 14.3044C7.72112 14.295 7.69041 14.2852 7.67286 14.2793C7.63705 14.2673 7.6072 14.2552 7.58989 14.248C7.5528 14.2326 7.51571 14.2155 7.48388 14.2003C7.41755 14.1686 7.33503 14.1265 7.24106 14.0764C7.05154 13.9754 6.79561 13.8309 6.49609 13.6479C5.89842 13.2827 5.10986 12.7534 4.32024 12.0962C3.5345 11.4421 2.71983 10.6383 2.09526 9.7187C1.47162 8.80047 1 7.71044 1 6.50675Z" fill="#BFC5D6"/>
</svg>
