<svg width="29" height="30" viewBox="0 0 29 30" fill="none" xmlns="http://www.w3.org/2000/svg">
<path d="M1.95276 23.4304C4.82889 27.041 9.26403 29.3586 14.2401 29.3586C20.0759 29.3586 25.1685 26.1725 27.8753 21.4471C26.4549 20.7984 25.4654 19.8969 24.4715 19.0635C22.5299 22.729 18.6774 25.2247 14.2401 25.2247C10.6867 25.2247 7.50713 23.6218 5.38521 21.1018C4.63759 21.8868 3.56674 22.7246 1.95276 23.4304Z" fill="#23252D"/>
<path fill-rule="evenodd" clip-rule="evenodd" d="M2.44537 20.2312C1.9902 14.369 4.1539 9.4589 8.55605 6.28592C9.31467 5.7384 9.8402 5.42616 10.6604 5.03696C11.0276 4.86325 11.386 4.69613 11.8434 4.52902C12.4173 4.31793 12.4811 4.3751 12.9076 4.06286C8.8551 3.55272 3.71852 5.5559 1.88685 8.02304C0.2267 10.2593 0.222303 16.4931 2.0012 19.6397L2.34202 20.1169C2.35741 20.0883 2.40799 20.196 2.44537 20.2312Z" fill="#23252D"/>
<path fill-rule="evenodd" clip-rule="evenodd" d="M26.8113 18.7887C28.6144 14.5845 27.792 10.5803 26.0637 6.9082C25.5096 8.18795 27.7018 14.2569 20.5225 20.715C19.2362 21.8716 18.0774 22.1904 16.4656 23.1117C20.2257 23.6461 25.7734 21.2097 26.8113 18.7887Z" fill="#23252D"/>
<path fill-rule="evenodd" clip-rule="evenodd" d="M23.3963 16.759C25.4126 14.4546 26.8991 8.0009 24.7508 5.06979C23.0774 2.78296 18.8226 -0.0799795 14.526 0.0849364L14.7657 0.260847C14.8009 0.282835 14.9636 0.386183 15.012 0.414768C17.6836 1.9232 19.7483 3.23593 21.4942 6.28138C23.2797 9.39719 24.0252 12.6471 23.3963 16.759Z" fill="#23252D"/>
<path fill-rule="evenodd" clip-rule="evenodd" d="M6.66736 19.5955C7.42597 21.5481 9.84694 24.1186 11.4037 25.1784C12.3734 25.8381 14.5811 27.0365 15.674 27.1068C17.2813 27.2124 20.617 25.66 21.7539 24.9343C23.0336 24.1186 25.0786 22.1659 25.7272 20.7697C24.4145 21.3062 23.425 22.3111 21.3867 22.9026C16.9251 24.1977 12.3317 23.5446 8.49023 20.9939C7.81957 20.5498 7.27205 19.9693 6.66736 19.5955Z" fill="#23252D"/>
<path fill-rule="evenodd" clip-rule="evenodd" d="M2.47412 6.84642C7.59971 3.43816 11.2433 2.52122 17.5101 4.84104C19.4912 5.57547 20.3114 6.499 21.5978 7.38734C20.9645 5.73159 19.1724 3.67564 18.0422 2.81587C16.9493 1.9825 14.3657 -0.0492651 12.3449 0.164026C7.9977 0.623592 3.73848 4.08463 2.47412 6.84642Z" fill="#23252D"/>
<path fill-rule="evenodd" clip-rule="evenodd" d="M14.3526 27.2214C13.4225 26.5639 12.5693 26.5551 10.2869 24.8114C9.15885 23.9494 8.04182 22.6147 7.18646 21.3569C4.97219 18.1026 4.65775 15.5431 4.79408 11.02C3.05257 13.9753 1.45178 19.8661 4.02007 22.6719C4.69953 23.4129 5.1371 23.8417 5.96388 24.4618C8.23093 26.1615 11.294 27.3577 14.3526 27.2214Z" fill="#23252D"/>
<path fill-rule="evenodd" clip-rule="evenodd" d="M19.5704 16.7964C20.5929 16.7239 21.7209 15.1824 22.02 14.6921C23.4602 16.4446 24.7158 17.5748 28.5836 20.009C28.4077 20.3806 28.0801 21.0908 27.8778 21.4471C26.0615 20.6181 23.7483 19.2042 22.4334 18.2191L21.5648 18.7226L21.3515 18.0344C20.6589 18.4962 19.7221 19.1998 19.0207 18.6237L16.448 15.7014L14.9836 17.179L14.2096 15.3408C13.5411 16.0686 12.1602 17.6056 11.6721 18.2169L10.4847 19.6879C9.98551 20.3102 8.89487 19.158 8.21321 18.8612L7.70967 19.7451L6.84771 19.1294C6.16826 20.1585 4.77637 22.3376 1.94861 23.4304C1.70673 23.127 1.33732 22.5927 1.11743 22.2716C3.932 20.5543 5.22714 17.654 6.79054 15.299C7.4458 15.9762 9.2181 17.588 9.83819 17.6408C11.7974 15.3606 13.341 13.9159 14.8362 11.7588C15.5443 12.0732 18.3435 15.9455 19.5704 16.7964Z" fill="#3D70F3"/>
</svg>
