<svg width="32" height="32" viewBox="0 0 32 32" fill="none" xmlns="http://www.w3.org/2000/svg">
<path fill-rule="evenodd" clip-rule="evenodd" d="M14.6667 5.33341C9.51209 5.33341 5.33341 9.51209 5.33341 14.6667C5.33341 19.8214 9.51209 24.0001 14.6667 24.0001C19.8214 24.0001 24.0001 19.8214 24.0001 14.6667C24.0001 9.51209 19.8214 5.33341 14.6667 5.33341ZM2.66675 14.6667C2.66675 8.03933 8.03933 2.66675 14.6667 2.66675C21.2942 2.66675 26.6667 8.03933 26.6667 14.6667C26.6667 17.499 25.6856 20.102 24.0446 22.1545L28.9433 27.0577C29.4638 27.5786 29.4634 28.4228 28.9425 28.9433C28.4215 29.4638 27.5773 29.4634 27.0568 28.9425L22.1594 24.0407C20.1062 25.684 17.5012 26.6667 14.6667 26.6667C8.03933 26.6667 2.66675 21.2942 2.66675 14.6667ZM13.3334 8.00008C13.3334 7.2637 13.9304 6.66675 14.6667 6.66675C19.085 6.66675 22.6667 10.2485 22.6667 14.6667C22.6667 15.4031 22.0698 16.0001 21.3334 16.0001C20.597 16.0001 20.0001 15.4031 20.0001 14.6667C20.0001 11.7212 17.6123 9.33341 14.6667 9.33341C13.9304 9.33341 13.3334 8.73646 13.3334 8.00008Z" fill="#757B8D"/>
</svg>
