<svg width="33" height="32" viewBox="0 0 33 32" fill="none" xmlns="http://www.w3.org/2000/svg">
<path fill-rule="evenodd" clip-rule="evenodd" d="M29.7211 7.69349V10.2005C29.7211 10.8629 30.2582 11.4 30.9207 11.4C31.5832 11.4 32.1202 10.8629 32.1202 10.2005V7.69349C32.1202 3.4445 28.6757 0 24.4267 0H21.9198C21.2573 0 20.7202 0.53705 20.7202 1.19954C20.7202 1.86202 21.2573 2.39907 21.9198 2.39907L24.4267 2.39907C27.3508 2.39907 29.7211 4.76946 29.7211 7.69349ZM16.4205 7.69995C14.7636 7.69995 13.4205 9.0431 13.4205 10.7C13.4205 12.3568 14.7636 13.7 16.4205 13.7C18.0773 13.7 19.4205 12.3568 19.4205 10.7C19.4205 9.0431 18.0773 7.69995 16.4205 7.69995ZM11.4205 10.7C11.4205 7.93853 13.659 5.69995 16.4205 5.69995C19.1819 5.69995 21.4205 7.93853 21.4205 10.7C21.4205 13.4614 19.1819 15.7 16.4205 15.7C13.659 15.7 11.4205 13.4614 11.4205 10.7ZM13.6935 16.8917C13.5452 16.7834 13.366 16.715 13.1716 16.7022C13.1441 16.7003 13.1165 16.6995 13.089 16.7L13.0105 16.6999C12.4666 16.6997 12.0634 16.6996 11.7079 16.7639C10.0664 17.0611 8.78161 18.3458 8.48444 19.9874C8.42008 20.3429 8.42023 20.7461 8.42043 21.2899V21.29L8.42046 21.384L8.42045 23.1318V23.1319C8.42042 23.3843 8.42039 23.63 8.4374 23.8382C8.45608 24.0668 8.50014 24.3365 8.63844 24.6079C8.83019 24.9843 9.13615 25.2902 9.51247 25.482C9.7839 25.6203 10.0536 25.6643 10.2822 25.683C10.4903 25.7 10.7359 25.7 10.9882 25.7H10.9882H10.9883H10.9883H10.9883H10.9884H10.9884H10.9884H10.9885H21.8524H21.8525H21.8525H21.8526H21.8526H21.8526H21.8527H21.8527H21.8527C22.105 25.7 22.3506 25.7 22.5587 25.683C22.7873 25.6643 23.057 25.6203 23.3284 25.482C23.7048 25.2902 24.0107 24.9843 24.2025 24.6079C24.3408 24.3365 24.3848 24.0668 24.4035 23.8382C24.4205 23.63 24.4205 23.3842 24.4205 23.1318L24.4205 21.3787L24.4205 21.2853C24.4207 20.7457 24.4208 20.3457 24.3575 19.9929C24.0619 18.3469 22.7735 17.0585 21.1275 16.7629C20.7747 16.6996 20.3747 16.6997 19.8351 16.6999H19.8351L19.752 16.7C19.557 16.6971 19.3592 16.7511 19.1846 16.8672C18.3932 17.3934 17.4442 17.7 16.4205 17.7C15.4127 17.7 14.4773 17.4029 13.6935 16.8917ZM12.8138 18.7003C12.3607 18.7018 12.194 18.7084 12.0642 18.7319C11.2434 18.8805 10.601 19.5229 10.4524 20.3437C10.4245 20.4981 10.4205 20.7048 10.4205 21.384V23.1C10.4205 23.3965 10.4212 23.5587 10.4308 23.6753L10.4319 23.6885L10.4451 23.6896C10.5617 23.6992 10.7239 23.7 11.0205 23.7H21.8205C22.117 23.7 22.2792 23.6992 22.3958 23.6896L22.409 23.6885L22.4102 23.6753C22.4197 23.5587 22.4205 23.3965 22.4205 23.1V21.3787C22.4205 20.7047 22.4165 20.4997 22.389 20.3464C22.2412 19.5234 21.597 18.8792 20.774 18.7314C20.6449 18.7083 20.479 18.7018 20.0271 18.7003C18.9733 19.3349 17.7382 19.7 16.4205 19.7C15.1027 19.7 13.8677 19.3349 12.8138 18.7003ZM3.11929 23.7065L3.11929 21.1995C3.11929 20.5371 2.58224 20 1.91975 20C1.25727 20 0.720215 20.5371 0.720215 21.1995V23.7065C0.720215 27.9555 4.16471 31.4 8.41371 31.4H10.9207C11.5832 31.4 12.1202 30.863 12.1202 30.2005C12.1202 29.538 11.5832 29.0009 10.9207 29.0009H8.41371C5.48968 29.0009 3.11929 26.6305 3.11929 23.7065ZM8.41371 2.39907H10.9207C11.5832 2.39907 12.1202 1.86202 12.1202 1.19954C12.1202 0.53705 11.5832 0 10.9207 0H8.41371C4.16471 0 0.720215 3.44449 0.720215 7.69349V10.2005C0.720215 10.8629 1.25726 11.4 1.91975 11.4C2.58224 11.4 3.11929 10.8629 3.11929 10.2005V7.69349C3.11929 4.76946 5.48968 2.39907 8.41371 2.39907ZM24.4267 29.0009H21.9198C21.2573 29.0009 20.7202 29.538 20.7202 30.2005C20.7202 30.863 21.2573 31.4 21.9198 31.4H24.4267C28.6757 31.4 32.1202 27.9555 32.1202 23.7065V21.1995C32.1202 20.5371 31.5832 20 30.9207 20C30.2582 20 29.7211 20.5371 29.7211 21.1995V23.7065C29.7211 26.6305 27.3508 29.0009 24.4267 29.0009Z" fill="#757B8D"/>
</svg>
